<svg id="kity_svg_6" xmlns="http://www.w3.org/2000/svg" xmlns:xlink="http://www.w3.org/1999/xlink" version="1.1" width="2513" height="1070" style="background: rgb(251, 251, 251); visibility: visible;" viewBox="0 0 2513 1070"><defs id="kity_defs_7"><linearGradient id="kity_linearGradient_17" x1="0" y1="0" x2="0" y2="1"><stop id="kity_stop_18" offset="0" stop-color="rgb(255, 255, 255)"></stop><stop id="kity_stop_19" offset="1" stop-color="rgb(204, 204, 204)"></stop></linearGradient><marker id="kity_marker_2" orient="auto" refX="6" refY="0" viewBox="-7 -7 14 14" markerWidth="7" markerHeight="7" markerUnits="userSpaceOnUse"><path id="kity_path_3" fill="rgb(115, 161, 191)" stroke="none" d="M6,0A6,6,0,1,1,-6,0A6,6,0,1,1,6,0"></path></marker></defs><g id="kity_g_8"><g id="minder1" text-rendering="optimize-speed"><g id="minder_connect_group1"><path id="kity_path_31" fill="none" stroke="rgb(115, 161, 191)" stroke-width="1" d="M1667.5000145211816,566.5000008419156A182,100,0,0,1,1849.5000145211816,466.5000008419156"></path><path id="kity_path_33" fill="none" stroke="rgb(115, 161, 191)" stroke-width="1" d="M1976.5000145211816,466.5000008419156C1991.5000145211816,466.5000008419156,1991.5000145211816,428.5000008419156,2006.5000145211816,428.5000008419156L2436.5000145211816,428.5000008419156"></path><path id="kity_path_35" fill="none" stroke="rgb(115, 161, 191)" stroke-width="1" d="M1976.5000145211816,466.5000008419156C1991.5000145211816,466.5000008419156,1991.5000145211816,480.5000008419156,2006.5000145211816,480.5000008419156L2224.5000145211816,480.5000008419156"></path><path id="kity_path_37" fill="none" stroke="rgb(115, 161, 191)" stroke-width="1" d="M1976.5000145211816,466.5000008419156C1991.5000145211816,466.5000008419156,1991.5000145211816,532.5000008419156,2006.5000145211816,532.5000008419156L2338.5000145211816,532.5000008419156"></path><path id="kity_path_39" fill="none" stroke="rgb(115, 161, 191)" stroke-width="1" d="M1667.5000145211816,566.5000008419156A182,101,0,0,0,1849.5000145211816,667.5000008419156"></path><path id="kity_path_41" fill="none" stroke="rgb(115, 161, 191)" stroke-width="1" d="M2073.5000145211816,667.5000008419156C2088.5000145211816,667.5000008419156,2088.5000145211816,594.5000008419156,2103.5000145211816,594.5000008419156L2432.5000145211816,594.5000008419156"></path><path id="kity_path_43" fill="none" stroke="rgb(115, 161, 191)" stroke-width="1" d="M2073.5000145211816,667.5000008419156C2088.5000145211816,667.5000008419156,2088.5000145211816,646.5000008419156,2103.5000145211816,646.5000008419156L2372.5000145211816,646.5000008419156"></path><path id="kity_path_45" fill="none" stroke="rgb(115, 161, 191)" stroke-width="1" d="M2073.5000145211816,667.5000008419156C2088.5000145211816,667.5000008419156,2088.5000145211816,716.5000008419156,2103.5000145211816,716.5000008419156L2492.5000145211816,716.5000008419156"></path><path id="kity_path_47" fill="none" stroke="rgb(115, 161, 191)" stroke-width="1" d="M2073.5000145211816,667.5000008419156C2088.5000145211816,667.5000008419156,2088.5000145211816,768.5000008419156,2103.5000145211816,768.5000008419156L2373.5000145211816,768.5000008419156"></path><path id="kity_path_49" fill="none" stroke="rgb(115, 161, 191)" stroke-width="1" d="M1667.5000145211816,566.5000008419156A182,0,0,0,1,1485.5000145211816,566.5000008419156"></path><path id="kity_path_51" fill="none" stroke="rgb(115, 161, 191)" stroke-width="1" d="M1232.5000145211816,566.5000008419156C1216.5000145211816,566.5000008419156,1216.5000145211816,183.5000008419156,1200.5000145211816,183.5000008419156L872.5000145211816,183.5000008419156"></path><path id="kity_path_53" fill="none" stroke="rgb(115, 161, 191)" stroke-width="1" d="M872.5000145211816,183.5000008419156C857.5000145211816,183.5000008419156,857.5000145211816,304.5000008419156,842.5000145211816,304.5000008419156L492.5000145211816,304.5000008419156"></path><path id="kity_path_73" fill="none" stroke="rgb(115, 161, 191)" stroke-width="1" d="M872.5000145211816,183.5000008419156C857.5000145211816,183.5000008419156,857.5000145211816,44.50000084191561,842.5000145211816,44.50000084191561L363.5000145211816,44.50000084191561"></path><path id="kity_path_75" fill="none" stroke="rgb(115, 161, 191)" stroke-width="1" d="M363.5000145211816,24.500000841915607C348.5000145211816,24.500000841915607,348.5000145211816,-1.4999991580843925,333.5000145211816,-1.4999991580843925L77.50001452118158,-1.4999991580843925" display="none"></path><path id="kity_path_77" fill="none" stroke="rgb(115, 161, 191)" stroke-width="1" d="M363.5000145211816,24.500000841915607C348.5000145211816,24.500000841915607,348.5000145211816,50.50000084191561,333.5000145211816,50.50000084191561L31.500014521181583,50.50000084191561" display="none"></path><path id="kity_path_79" fill="none" stroke="rgb(115, 161, 191)" stroke-width="1" d="M872.5000145211816,183.5000008419156C857.5000145211816,183.5000008419156,857.5000145211816,96.50000084191561,842.5000145211816,96.50000084191561L277.5000145211816,96.50000084191561"></path><path id="kity_path_81" fill="none" stroke="rgb(115, 161, 191)" stroke-width="1" d="M277.5000145211816,89.50000084191561C262.5000145211816,89.50000084191561,262.5000145211816,63.50000084191561,247.50001452118158,63.50000084191561L-11.499985478818417,63.50000084191561" display="none"></path><path id="kity_path_83" fill="none" stroke="rgb(115, 161, 191)" stroke-width="1" d="M277.5000145211816,89.50000084191561C262.5000145211816,89.50000084191561,262.5000145211816,115.50000084191561,247.50001452118158,115.50000084191561L-56.49998547881842,115.50000084191561" display="none"></path><path id="kity_path_85" fill="none" stroke="rgb(115, 161, 191)" stroke-width="1" d="M872.5000145211816,183.5000008419156C857.5000145211816,183.5000008419156,857.5000145211816,148.5000008419156,842.5000145211816,148.5000008419156L446.5000145211816,148.5000008419156"></path><path id="kity_path_87" fill="none" stroke="rgb(115, 161, 191)" stroke-width="1" d="M872.5000145211816,183.5000008419156C857.5000145211816,183.5000008419156,857.5000145211816,200.5000008419156,842.5000145211816,200.5000008419156L19.500014521181583,200.5000008419156"></path><path id="kity_path_89" fill="none" stroke="rgb(115, 161, 191)" stroke-width="1" d="M872.5000145211816,183.5000008419156C857.5000145211816,183.5000008419156,857.5000145211816,252.5000008419156,842.5000145211816,252.5000008419156L556.5000145211816,252.5000008419156"></path><path id="kity_path_91" fill="none" stroke="rgb(115, 161, 191)" stroke-width="1" d="M556.5000145211816,258.5000008419156C541.5000145211816,258.5000008419156,541.5000145211816,232.5000008419156,526.5000145211816,232.5000008419156L270.5000145211816,232.5000008419156" display="none"></path><path id="kity_path_93" fill="none" stroke="rgb(115, 161, 191)" stroke-width="1" d="M556.5000145211816,258.5000008419156C541.5000145211816,258.5000008419156,541.5000145211816,284.5000008419156,526.5000145211816,284.5000008419156L49.50001452118158,284.5000008419156" display="none"></path><path id="kity_path_95" fill="none" stroke="rgb(115, 161, 191)" stroke-width="1" d="M1232.5000145211816,566.5000008419156C1217.5000145211816,566.5000008419156,1217.5000145211816,407.5000008419156,1202.5000145211816,407.5000008419156L1038.5000145211816,407.5000008419156"></path><path id="kity_path_97" fill="none" stroke="rgb(115, 161, 191)" stroke-width="1" d="M1038.5000145211816,407.5000008419156C1023.5000145211816,407.5000008419156,1023.5000145211816,355.5000008419156,1008.5000145211816,355.5000008419156L586.5000145211816,355.5000008419156"></path><path id="kity_path_99" fill="none" stroke="rgb(115, 161, 191)" stroke-width="1" d="M1038.5000145211816,407.5000008419156C1023.5000145211816,407.5000008419156,1023.5000145211816,407.5000008419156,1008.5000145211816,407.5000008419156L662.5000145211816,407.5000008419156"></path><path id="kity_path_101" fill="none" stroke="rgb(115, 161, 191)" stroke-width="1" d="M1038.5000145211816,407.5000008419156C1022.5000145211816,407.5000008419156,1022.5000145211816,455.5000008419156,1006.5000145211816,455.5000008419156L685.5000145211816,455.5000008419156"></path><path id="kity_path_103" fill="none" stroke="rgb(115, 161, 191)" stroke-width="1" d="M1232.5000145211816,566.5000008419156C1217.5000145211816,566.5000008419156,1217.5000145211816,589.5000008419156,1202.5000145211816,589.5000008419156L1033.5000145211816,589.5000008419156"></path><path id="kity_path_105" fill="none" stroke="rgb(115, 161, 191)" stroke-width="1" d="M1033.5000145211816,589.5000008419156C1018.5000145211816,589.5000008419156,1018.5000145211816,511.5000008419156,1003.5000145211816,511.5000008419156L820.5000145211816,511.5000008419156"></path><path id="kity_path_107" fill="none" stroke="rgb(115, 161, 191)" stroke-width="1" d="M1033.5000145211816,589.5000008419156C1018.5000145211816,589.5000008419156,1018.5000145211816,563.5000008419156,1003.5000145211816,563.5000008419156L682.5000145211816,563.5000008419156"></path><path id="kity_path_109" fill="none" stroke="rgb(115, 161, 191)" stroke-width="1" d="M1033.5000145211816,589.5000008419156C1018.5000145211816,589.5000008419156,1018.5000145211816,615.5000008419156,1003.5000145211816,615.5000008419156L792.5000145211816,615.5000008419156"></path><path id="kity_path_111" fill="none" stroke="rgb(115, 161, 191)" stroke-width="1" d="M1033.5000145211816,589.5000008419156C1018.5000145211816,589.5000008419156,1018.5000145211816,667.5000008419156,1003.5000145211816,667.5000008419156L439.5000145211816,667.5000008419156"></path><path id="kity_path_113" fill="none" stroke="rgb(115, 161, 191)" stroke-width="1" d="M1232.5000145211816,566.5000008419156C1217.5000145211816,566.5000008419156,1217.5000145211816,771.5000008419156,1202.5000145211816,771.5000008419156L1028.5000145211816,771.5000008419156"></path><path id="kity_path_115" fill="none" stroke="rgb(115, 161, 191)" stroke-width="1" d="M1028.5000145211816,771.5000008419156C1013.5000145211816,771.5000008419156,1013.5000145211816,719.5000008419156,998.5000145211816,719.5000008419156L675.5000145211816,719.5000008419156"></path><path id="kity_path_117" fill="none" stroke="rgb(115, 161, 191)" stroke-width="1" d="M1028.5000145211816,771.5000008419156C1013.5000145211816,771.5000008419156,1013.5000145211816,771.5000008419156,998.5000145211816,771.5000008419156L757.5000145211816,771.5000008419156"></path><path id="kity_path_119" fill="none" stroke="rgb(115, 161, 191)" stroke-width="1" d="M1028.5000145211816,771.5000008419156C1013.5000145211816,771.5000008419156,1013.5000145211816,823.5000008419156,998.5000145211816,823.5000008419156L661.5000145211816,823.5000008419156"></path><path id="kity_path_121" fill="none" stroke="rgb(115, 161, 191)" stroke-width="1" d="M1232.5000145211816,566.5000008419156C1211.0000145211816,566.5000008419156,1211.0000145211816,906.5000008419156,1189.5000145211816,906.5000008419156L929.5000145211816,906.5000008419156"></path><path id="kity_path_123" fill="none" stroke="rgb(115, 161, 191)" stroke-width="1" d="M929.5000145211816,906.5000008419156C914.5000145211816,906.5000008419156,914.5000145211816,897.5000008419156,899.5000145211816,897.5000008419156L401.5000145211816,897.5000008419156"></path><path id="kity_path_125" fill="none" stroke="rgb(115, 161, 191)" stroke-width="1" d="M1232.5000145211816,566.5000008419156C1217.5000145211816,566.5000008419156,1217.5000145211816,997.5000008419156,1202.5000145211816,997.5000008419156L957.5000145211816,997.5000008419156"></path><path id="kity_path_127" fill="none" stroke="rgb(115, 161, 191)" stroke-width="1" d="M957.5000145211816,997.5000008419156C942.5000145211816,997.5000008419156,942.5000145211816,945.5000008419156,927.5000145211816,945.5000008419156L780.5000145211816,945.5000008419156"></path><path id="kity_path_129" fill="none" stroke="rgb(115, 161, 191)" stroke-width="1" d="M957.5000145211816,997.5000008419156C942.5000145211816,997.5000008419156,942.5000145211816,997.5000008419156,927.5000145211816,997.5000008419156L492.5000145211816,997.5000008419156"></path><path id="kity_path_131" fill="none" stroke="rgb(115, 161, 191)" stroke-width="1" d="M957.5000145211816,997.5000008419156C942.5000145211816,997.5000008419156,942.5000145211816,1049.5000008419156,927.5000145211816,1049.5000008419156L671.5000145211816,1049.5000008419156"></path><path id="kity_path_442" fill="none" stroke="none" display="none"></path><path id="kity_path_443" fill="none" stroke="none" display="none"></path><path id="kity_path_444" fill="none" stroke="none" display="none"></path><path id="kity_path_445" fill="none" stroke="none" display="none"></path><path id="kity_path_446" fill="none" stroke="none" display="none"></path><path id="kity_path_447" fill="none" stroke="none" display="none"></path><path id="kity_path_448" fill="none" stroke="none" display="none"></path><path id="kity_path_449" fill="none" stroke="none" display="none"></path><path id="kity_path_450" fill="none" stroke="none" display="none"></path></g><g id="minder_node1"><path id="node_outline1" fill="rgb(115, 161, 191)" stroke="rgb(115, 161, 191)" d="M1608.5000145211816,546.5000008419156h118a5,5,0,0,1,5,5v30a5,5,0,0,1,-5,5h-118a5,5,0,0,1,-5,-5v-30a5,5,0,0,1,5,-5z" stroke-width="3"></path><g id="node_text1" fill="white"><text id="kity_text_22" text-rendering="inherit" font-size="16" dy=".8em" y="556.1000008061528" x="1627.5000145211816">小目标检测</text></g></g><g id="kity_g_14" display="none"><path id="kity_path_15" fill="rgba(0, 92, 153, 0.5)" stroke="none" d="M535.5000145211816,346.5000008419156h276v15h-276z"></path><path id="kity_path_16" fill="none" stroke="rgb(0, 76, 128)" d="M535.5000145211816,346.5000008419156L811.5000145211816,346.5000008419156" stroke-width="1"></path></g><g id="minder_node2"><g id="node_expander4" style="cursor: pointer;"><path id="kity_path_299" fill="white" stroke="gray" d="M1850.5000177547336,466.4999993517995A6,6,0,1,1,1838.5000177547336,466.4999993517995A6,6,0,1,1,1850.5000177547336,466.4999993517995"></path><path id="kity_path_300" fill="none" stroke="gray" d="M1840.0000177547336,466.4999993517995L1849.0000177547336,466.4999993517995"></path></g><path id="node_outline5" fill="rgb(238, 243, 246)" stroke="rgb(115, 161, 191)" d="M1854.500018157065,453.4999993517995h119a3,3,0,0,1,3,3v20a3,3,0,0,1,-3,3h-119a3,3,0,0,1,-3,-3v-20a3,3,0,0,1,3,-3z" stroke-width="1"></path><g id="node_text5" fill="black"><text id="kity_text_139" text-rendering="inherit" font-size="14" dy=".8em" y="457.39999932050705" x="1871.500018157065">小目标的定义</text></g></g><g id="minder_node3"><g id="node_expander1" display="none" style="cursor: pointer;"><path id="kity_path_290" fill="white" stroke="gray" d="M2016.5000202283263,414.4999985769391A6,6,0,1,1,2004.5000202283263,414.4999985769391A6,6,0,1,1,2016.5000202283263,414.4999985769391"></path><path id="kity_path_291" fill="none" stroke="gray"></path></g><path id="node_outline2" fill="none" stroke="none" d="M2021.500020466745,403.4999985769391h410a5,5,0,0,1,5,5v12a5,5,0,0,1,-5,5h-410a5,5,0,0,1,-5,-5v-12a5,5,0,0,1,5,-5z"></path><g id="node_text2" fill="black"><text id="kity_text_133" text-rendering="inherit" font-size="12" dy=".8em" y="406.699998550117" x="2026.500020466745">1.相对尺寸大小，如目标尺寸的长宽是原图像尺寸的0.1，即可认为是小目标</text></g></g><g id="minder_node4"><g id="node_expander2" display="none" style="cursor: pointer;"><path id="kity_path_293" fill="white" stroke="gray" d="M2016.5000202283263,466.4999993517995A6,6,0,1,1,2004.5000202283263,466.4999993517995A6,6,0,1,1,2016.5000202283263,466.4999993517995"></path><path id="kity_path_294" fill="none" stroke="gray"></path></g><path id="node_outline3" fill="none" stroke="none" d="M2021.500020466745,455.4999993517995h198a5,5,0,0,1,5,5v12a5,5,0,0,1,-5,5h-198a5,5,0,0,1,-5,-5v-12a5,5,0,0,1,5,-5z"></path><g id="node_text3" fill="black"><text id="kity_text_135" text-rendering="inherit" font-size="12" dy=".8em" y="458.6999993249774" x="2026.500020466745">2.绝对尺寸定义，即尺寸小于32*32</text></g></g><g id="minder_node5"><g id="node_expander3" display="none" style="cursor: pointer;"><path id="kity_path_296" fill="white" stroke="gray" d="M2016.5000202283263,518.5000001266599A6,6,0,1,1,2004.5000202283263,518.5000001266599A6,6,0,1,1,2016.5000202283263,518.5000001266599"></path><path id="kity_path_297" fill="none" stroke="gray"></path></g><path id="node_outline4" fill="none" stroke="none" d="M2021.500020466745,507.50000012665987h312a5,5,0,0,1,5,5v12a5,5,0,0,1,-5,5h-312a5,5,0,0,1,-5,-5v-12a5,5,0,0,1,5,-5z"></path><g id="node_text4" fill="black"><text id="kity_text_137" text-rendering="inherit" font-size="12" dy=".8em" y="510.7000000998378" x="2026.500020466745">这里采用第二种绝对尺寸的定义，参考数据集 MS COCO</text></g></g><g id="minder_node6"><g id="node_expander9" style="cursor: pointer;"><path id="kity_path_314" fill="white" stroke="gray" d="M1850.5000177547336,667.5000023469329A6,6,0,1,1,1838.5000177547336,667.5000023469329A6,6,0,1,1,1850.5000177547336,667.5000023469329"></path><path id="kity_path_315" fill="none" stroke="gray" d="M1840.0000177547336,667.5000023469329L1849.0000177547336,667.5000023469329"></path></g><path id="node_outline10" fill="rgb(238, 243, 246)" stroke="rgb(115, 161, 191)" d="M1854.500018157065,654.5000023469329h216a3,3,0,0,1,3,3v20a3,3,0,0,1,-3,3h-216a3,3,0,0,1,-3,-3v-20a3,3,0,0,1,3,-3z" stroke-width="1"></path><g id="node_text10" fill="black"><text id="kity_text_150" text-rendering="inherit" font-size="14" dy=".8em" y="658.4000023156404" x="1871.500018157065">小目标检测面临的不平衡问题</text></g></g><g id="minder_node7"><g id="node_expander5" display="none" style="cursor: pointer;"><path id="kity_path_302" fill="white" stroke="gray" d="M2113.500021673739,580.5000010505319A6,6,0,1,1,2101.500021673739,580.5000010505319A6,6,0,1,1,2113.500021673739,580.5000010505319"></path><path id="kity_path_303" fill="none" stroke="gray"></path></g><path id="node_outline6" fill="none" stroke="none" d="M2118.5000219121575,569.5000010505319h309a5,5,0,0,1,5,5v12a5,5,0,0,1,-5,5h-309a5,5,0,0,1,-5,-5v-12a5,5,0,0,1,5,-5z"></path><g id="node_text6" fill="black"><text id="kity_text_141" text-rendering="inherit" font-size="12" dy=".8em" y="572.7000010237098" x="2123.5000219121575">1.小目标相对于大目标分辨率低，图像模糊，携带信息少</text></g></g><g id="minder_node8"><g id="node_expander6" display="none" style="cursor: pointer;"><path id="kity_path_305" fill="white" stroke="gray" d="M2113.500021673739,632.5000018253922A6,6,0,1,1,2101.500021673739,632.5000018253922A6,6,0,1,1,2113.500021673739,632.5000018253922"></path><path id="kity_path_306" fill="none" stroke="gray"></path></g><path id="node_outline7" fill="none" stroke="none" d="M2118.5000219121575,621.5000018253922h249a5,5,0,0,1,5,5v12a5,5,0,0,1,-5,5h-249a5,5,0,0,1,-5,-5v-12a5,5,0,0,1,5,-5z"></path><g id="node_text7" fill="black"><text id="kity_text_143" text-rendering="inherit" font-size="12" dy=".8em" y="624.7000017985702" x="2123.5000219121575">2.卷积网络进行下采样时，小目标更容易遗失</text></g></g><g id="minder_node9"><g id="node_expander7" display="none" style="cursor: pointer;"><path id="kity_path_308" fill="white" stroke="gray" d="M2113.500021673739,693.5000027343631A6,6,0,1,1,2101.500021673739,693.5000027343631A6,6,0,1,1,2113.500021673739,693.5000027343631"></path><path id="kity_path_309" fill="none" stroke="gray"></path></g><path id="node_outline8" fill="none" stroke="none" d="M2118.5000219121575,673.5000027343631h369a5,5,0,0,1,5,5v30a5,5,0,0,1,-5,5h-369a5,5,0,0,1,-5,-5v-30a5,5,0,0,1,5,-5z"></path><g id="node_text8" fill="black"><text id="kity_text_145" text-rendering="inherit" font-size="12" dy=".8em" y="676.700002707541" x="2123.5000219121575">3.one-stage检测中，小目标的anchor匹配数目少，匹配率低；</text><text id="kity_text_146" text-rendering="inherit" font-size="12" dy=".8em" y="694.700002707541" x="2123.5000219121575">tow-stage中改进了RPN后速率会降低，鲁棒性不好，容易过拟合。</text></g></g><g id="minder_node10"><g id="node_expander8" display="none" style="cursor: pointer;"><path id="kity_path_311" fill="white" stroke="gray" d="M2113.500021673739,754.5000036433339A6,6,0,1,1,2101.500021673739,754.5000036433339A6,6,0,1,1,2113.500021673739,754.5000036433339"></path><path id="kity_path_312" fill="none" stroke="gray"></path></g><path id="node_outline9" fill="none" stroke="none" d="M2118.5000219121575,743.5000036433339h250a5,5,0,0,1,5,5v12a5,5,0,0,1,-5,5h-250a5,5,0,0,1,-5,-5v-12a5,5,0,0,1,5,-5z"></path><g id="node_text9" fill="black"><text id="kity_text_148" text-rendering="inherit" font-size="12" dy=".8em" y="746.7000036165118" x="2123.5000219121575">4.小目标对损失函数的贡献会明显小于大目标</text></g></g><g id="minder_node11"><g id="node_expander51" style="cursor: pointer;"><path id="kity_path_440" fill="white" stroke="gray" d="M1496.5000124797225,566.5000008419156A6,6,0,1,1,1484.5000124797225,566.5000008419156A6,6,0,1,1,1496.5000124797225,566.5000008419156"></path><path id="kity_path_441" fill="none" stroke="gray" d="M1486.0000124797225,566.5000008419156L1495.0000124797225,566.5000008419156"></path></g><path id="node_outline52" fill="rgb(238, 243, 246)" stroke="rgb(115, 161, 191)" d="M1235.5000089332461,553.5000008419156h245a3,3,0,0,1,3,3v20a3,3,0,0,1,-3,3h-245a3,3,0,0,1,-3,-3v-20a3,3,0,0,1,3,-3z" stroke-width="1"></path><g id="node_text52" fill="black"><text id="kity_text_237" text-rendering="inherit" font-size="14" dy=".8em" y="557.4000008106232" x="1252.5000089332461">流行的解决小目标检测问题的方法</text></g></g><g id="minder_node12"><g id="node_expander31" style="cursor: pointer;"><path id="kity_path_380" fill="white" stroke="gray" d="M1202.500008098781,160.49999479204416A6,6,0,1,1,1190.500008098781,160.49999479204416A6,6,0,1,1,1202.500008098781,160.49999479204416"></path><path id="kity_path_381" fill="none" stroke="gray" d="M1192.000008098781,160.49999479204416L1201.000008098781,160.49999479204416"></path></g><path id="node_outline32" fill="none" stroke="none" d="M877.5000034198165,140.49999479204416h308a5,5,0,0,1,5,5v30a5,5,0,0,1,-5,5h-308a5,5,0,0,1,-5,-5v-30a5,5,0,0,1,5,-5z"></path><g id="node_text32" fill="black"><text id="kity_text_195" text-rendering="inherit" font-size="12" dy=".8em" y="143.69999476522207" x="882.5000034198165">1.为解决小目标面积太小问题，使用多尺度特征进行检测</text><text id="kity_text_196" text-rendering="inherit" font-size="12" dy=".8em" y="161.69999476522207" x="882.5000034198165">参考于使用不同分辨率的图像金字塔</text></g></g><g id="minder_node13" opacity="1"><g id="node_expander19" style="cursor: pointer;"><path id="kity_path_344" fill="white" stroke="gray" d="M844.5000027641654,290.4999967291951A6,6,0,1,1,832.5000027641654,290.4999967291951A6,6,0,1,1,844.5000027641654,290.4999967291951"></path><path id="kity_path_345" fill="none" stroke="gray" d="M834.0000027641654,290.4999967291951L843.0000027641654,290.4999967291951M838.5000027641654,285.9999967291951L838.5000027641654,294.9999967291951"></path></g><path id="node_outline20" fill="none" stroke="none" d="M497.49999775737524,279.4999967291951h330a5,5,0,0,1,5,5v12a5,5,0,0,1,-5,5h-330a5,5,0,0,1,-5,-5v-12a5,5,0,0,1,5,-5z" stroke-width="3"></path><g id="node_text20" fill="black"><text id="kity_text_171" text-rendering="inherit" font-size="12" dy=".8em" y="282.699996702373" x="502.49999775737524">FPN（Feature Pyramid Networks for Object Detection）</text></g></g><g id="minder_node23"><g id="node_expander22" style="cursor: pointer;"><path id="kity_path_353" fill="white" stroke="gray" d="M844.5000027641654,30.499992854893208A6,6,0,1,1,832.5000027641654,30.499992854893208A6,6,0,1,1,844.5000027641654,30.499992854893208"></path><path id="kity_path_354" fill="none" stroke="gray" d="M834.0000027641654,30.499992854893208L843.0000027641654,30.499992854893208M838.5000027641654,25.999992854893208L838.5000027641654,34.99999285489321"></path></g><path id="node_outline23" fill="none" stroke="none" d="M368.49999583512545,19.499992854893208h459a5,5,0,0,1,5,5v12a5,5,0,0,1,-5,5h-459a5,5,0,0,1,-5,-5v-12a5,5,0,0,1,5,-5z" stroke-width="3"></path><g id="node_text23" fill="black"><text id="kity_text_177" text-rendering="inherit" font-size="12" dy=".8em" y="22.699992828071117" x="373.49999583512545">尺度归一化：SNIP（An Analysis of Scale Invariance in Object Detection – SNIP)</text></g></g><g id="minder_node24" display="none"><g id="node_expander20" style="cursor: pointer;" display="none"><path id="kity_path_347" fill="white" stroke="gray" d="M335.49999517947435,0.49999240785837173A6,6,0,1,1,323.49999517947435,0.49999240785837173A6,6,0,1,1,335.49999517947435,0.49999240785837173"></path><path id="kity_path_348" fill="none" stroke="gray"></path></g><path id="node_outline21" fill="none" stroke="none" d="M318.4999950900674,-10.500007592141628h236a5,5,0,0,1,5,5v12a5,5,0,0,1,-5,5h-236a5,5,0,0,1,-5,-5v-12a5,5,0,0,1,5,-5z"></path><g id="node_text21" fill="black"><text id="kity_text_173" text-rendering="inherit" font-size="12" dy=".8em" y="-7.300007618963718" x="323.4999950900674">论文：https://arxiv.org/abs/1711.08189</text></g></g><g id="minder_node25" display="none"><g id="node_expander21" style="cursor: pointer;" display="none"><path id="kity_path_350" fill="white" stroke="gray" d="M335.49999517947435,30.499992854893208A6,6,0,1,1,323.49999517947435,30.499992854893208A6,6,0,1,1,335.49999517947435,30.499992854893208"></path><path id="kity_path_351" fill="none" stroke="gray"></path></g><path id="node_outline22" fill="none" stroke="none" d="M318.4999950900674,19.499992854893208h282a5,5,0,0,1,5,5v12a5,5,0,0,1,-5,5h-282a5,5,0,0,1,-5,-5v-12a5,5,0,0,1,5,-5z"></path><g id="node_text22" fill="black"><text id="kity_text_175" text-rendering="inherit" font-size="12" dy=".8em" y="22.699992828071117" x="323.4999950900674">代码：https://github.com/mahyarnajibi/SNIPER</text></g></g><g id="minder_node26"><g id="node_expander25" style="cursor: pointer;"><path id="kity_path_362" fill="white" stroke="gray" d="M844.5000027641654,82.49999362975359A6,6,0,1,1,832.5000027641654,82.49999362975359A6,6,0,1,1,844.5000027641654,82.49999362975359"></path><path id="kity_path_363" fill="none" stroke="gray" d="M834.0000027641654,82.49999362975359L843.0000027641654,82.49999362975359M838.5000027641654,77.99999362975359L838.5000027641654,86.99999362975359"></path></g><path id="node_outline26" fill="none" stroke="none" d="M282.4999945536256,71.49999362975359h545a5,5,0,0,1,5,5v12a5,5,0,0,1,-5,5h-545a5,5,0,0,1,-5,-5v-12a5,5,0,0,1,5,-5z" stroke-width="3"></path><g id="node_text26" fill="black"><text id="kity_text_183" text-rendering="inherit" font-size="12" dy=".8em" y="74.6999936029315" x="287.4999945536256">SNIPER:SNIP方法的改进（Scale Normalization for Image Pyramids with Efficient Resampling）</text></g></g><g id="minder_node27" display="none"><g id="node_expander23" style="cursor: pointer;" display="none"><path id="kity_path_356" fill="white" stroke="gray" d="M249.4999938979745,52.499993182718754A6,6,0,1,1,237.4999938979745,52.499993182718754A6,6,0,1,1,249.4999938979745,52.499993182718754"></path><path id="kity_path_357" fill="none" stroke="gray"></path></g><path id="node_outline24" fill="none" stroke="none" d="M232.49999380856752,41.499993182718754h239a5,5,0,0,1,5,5v12a5,5,0,0,1,-5,5h-239a5,5,0,0,1,-5,-5v-12a5,5,0,0,1,5,-5z"></path><g id="node_text24" fill="black"><text id="kity_text_179" text-rendering="inherit" font-size="12" dy=".8em" y="44.699993155896664" x="237.49999380856752">论文：https://arxiv.org/abs/1805.09300&#xa0;</text></g></g><g id="minder_node28" display="none"><g id="node_expander24" style="cursor: pointer;" display="none"><path id="kity_path_359" fill="white" stroke="gray" d="M249.4999938979745,82.49999362975359A6,6,0,1,1,237.4999938979745,82.49999362975359A6,6,0,1,1,249.4999938979745,82.49999362975359"></path><path id="kity_path_360" fill="none" stroke="gray"></path></g><path id="node_outline25" fill="none" stroke="none" d="M232.49999380856752,71.49999362975359h284a5,5,0,0,1,5,5v12a5,5,0,0,1,-5,5h-284a5,5,0,0,1,-5,-5v-12a5,5,0,0,1,5,-5z"></path><g id="node_text25" fill="black"><text id="kity_text_181" text-rendering="inherit" font-size="12" dy=".8em" y="74.6999936029315" x="237.49999380856752">代码：https://github.com/MahyarNajibi/SNIPER</text></g></g><g id="minder_node29"><g id="node_expander26" display="none" style="cursor: pointer;"><path id="kity_path_365" fill="white" stroke="gray" d="M844.5000027641654,134.49999440461397A6,6,0,1,1,832.5000027641654,134.49999440461397A6,6,0,1,1,844.5000027641654,134.49999440461397"></path><path id="kity_path_366" fill="none" stroke="gray"></path></g><path id="node_outline27" fill="none" stroke="none" d="M451.4999970719218,123.49999440461397h376a5,5,0,0,1,5,5v12a5,5,0,0,1,-5,5h-376a5,5,0,0,1,-5,-5v-12a5,5,0,0,1,5,-5z"></path><g id="node_text27" fill="black"><text id="kity_text_185" text-rendering="inherit" font-size="12" dy=".8em" y="126.69999437779188" x="456.4999970719218">SSD以不同stride的feature map作为检测层分别检测不同尺度的目标</text></g></g><g id="minder_node30"><g id="node_expander27" display="none" style="cursor: pointer;"><path id="kity_path_368" fill="white" stroke="gray" d="M844.5000027641654,186.49999517947435A6,6,0,1,1,832.5000027641654,186.49999517947435A6,6,0,1,1,844.5000027641654,186.49999517947435"></path><path id="kity_path_369" fill="none" stroke="gray"></path></g><path id="node_outline28" fill="none" stroke="none" d="M24.499990709125996,175.49999517947435h803a5,5,0,0,1,5,5v12a5,5,0,0,1,-5,5h-803a5,5,0,0,1,-5,-5v-12a5,5,0,0,1,5,-5z"></path><g id="node_text28" fill="black"><text id="kity_text_187" text-rendering="inherit" font-size="12" dy=".8em" y="178.69999515265226" x="29.499990709125996">参考文章：Feature-Fused SSD: Fast Detection for Small Objects, Detecting Small Objects Using a Channel-Aware Deconvolutional Network</text></g></g><g id="minder_node31"><g id="node_expander30" style="cursor: pointer;"><path id="kity_path_377" fill="white" stroke="gray" d="M844.5000027641654,238.49999595433474A6,6,0,1,1,832.5000027641654,238.49999595433474A6,6,0,1,1,844.5000027641654,238.49999595433474"></path><path id="kity_path_378" fill="none" stroke="gray" d="M834.0000027641654,238.49999595433474L843.0000027641654,238.49999595433474M838.5000027641654,233.99999595433474L838.5000027641654,242.99999595433474"></path></g><path id="node_outline31" fill="none" stroke="none" d="M561.4999987110496,227.49999595433474h266a5,5,0,0,1,5,5v12a5,5,0,0,1,-5,5h-266a5,5,0,0,1,-5,-5v-12a5,5,0,0,1,5,-5z" stroke-width="3"></path><g id="node_text31" fill="black"><text id="kity_text_193" text-rendering="inherit" font-size="12" dy=".8em" y="230.69999592751265" x="566.4999987110496">空洞卷积处理多尺度，TridentNet：三叉戟网络</text></g></g><g id="minder_node32" display="none"><g id="node_expander28" style="cursor: pointer;" display="none"><path id="kity_path_371" fill="white" stroke="gray" d="M528.4999980553985,208.4999955072999A6,6,0,1,1,516.4999980553985,208.4999955072999A6,6,0,1,1,528.4999980553985,208.4999955072999"></path><path id="kity_path_372" fill="none" stroke="gray"></path></g><path id="node_outline29" fill="none" stroke="none" d="M511.4999979659915,197.4999955072999h236a5,5,0,0,1,5,5v12a5,5,0,0,1,-5,5h-236a5,5,0,0,1,-5,-5v-12a5,5,0,0,1,5,-5z"></path><g id="node_text29" fill="black"><text id="kity_text_189" text-rendering="inherit" font-size="12" dy=".8em" y="200.6999954804778" x="516.4999979659915">论文：https://arxiv.org/abs/1901.01892</text></g></g><g id="minder_node33" display="none"><g id="node_expander29" style="cursor: pointer;" display="none"><path id="kity_path_374" fill="white" stroke="gray" d="M528.4999980553985,238.49999595433474A6,6,0,1,1,516.4999980553985,238.49999595433474A6,6,0,1,1,528.4999980553985,238.49999595433474"></path><path id="kity_path_375" fill="none" stroke="gray"></path></g><path id="node_outline30" fill="none" stroke="none" d="M511.4999979659915,227.49999595433474h457a5,5,0,0,1,5,5v12a5,5,0,0,1,-5,5h-457a5,5,0,0,1,-5,-5v-12a5,5,0,0,1,5,-5z"></path><g id="node_text30" fill="black"><text id="kity_text_191" text-rendering="inherit" font-size="12" dy=".8em" y="230.69999592751265" x="516.4999979659915">代码：https://github.com/TuSimple/simpledet/tree/master/models/tridentnet</text></g></g><g id="minder_node34"><g id="node_expander35" style="cursor: pointer;"><path id="kity_path_392" fill="white" stroke="gray" d="M1204.5000081285834,393.4999982640147A6,6,0,1,1,1192.5000081285834,393.4999982640147A6,6,0,1,1,1204.5000081285834,393.4999982640147"></path><path id="kity_path_393" fill="none" stroke="gray" d="M1194.0000081285834,393.4999982640147L1203.0000081285834,393.4999982640147"></path></g><path id="node_outline36" fill="none" stroke="none" d="M1043.5000058934093,382.4999982640147h144a5,5,0,0,1,5,5v12a5,5,0,0,1,-5,5h-144a5,5,0,0,1,-5,-5v-12a5,5,0,0,1,5,-5z"></path><g id="node_text36" fill="black"><text id="kity_text_204" text-rendering="inherit" font-size="12" dy=".8em" y="385.69999823719263" x="1048.5000058934093">2.改进模型的anchor匹配</text></g></g><g id="minder_node35"><g id="node_expander32" display="none" style="cursor: pointer;"><path id="kity_path_383" fill="white" stroke="gray" d="M1010.5000052377582,341.49999748915434A6,6,0,1,1,998.5000052377582,341.49999748915434A6,6,0,1,1,1010.5000052377582,341.49999748915434"></path><path id="kity_path_384" fill="none" stroke="gray"></path></g><path id="node_outline33" fill="none" stroke="none" d="M591.4999991580844,330.49999748915434h402a5,5,0,0,1,5,5v12a5,5,0,0,1,-5,5h-402a5,5,0,0,1,-5,-5v-12a5,5,0,0,1,5,-5z"></path><g id="node_text33" fill="black"><text id="kity_text_198" text-rendering="inherit" font-size="12" dy=".8em" y="333.69999746233225" x="596.4999991580844">改进anchor的密度（每个anchor产生候选框的个数）；包括改进前景阈值</text></g></g><g id="minder_node36"><g id="node_expander33" display="none" style="cursor: pointer;"><path id="kity_path_386" fill="white" stroke="gray" d="M1010.5000052377582,393.4999982640147A6,6,0,1,1,998.5000052377582,393.4999982640147A6,6,0,1,1,1010.5000052377582,393.4999982640147"></path><path id="kity_path_387" fill="none" stroke="gray"></path></g><path id="node_outline34" fill="none" stroke="none" d="M667.5000002905726,382.4999982640147h326a5,5,0,0,1,5,5v12a5,5,0,0,1,-5,5h-326a5,5,0,0,1,-5,-5v-12a5,5,0,0,1,5,-5z"></path><g id="node_text34" fill="black"><text id="kity_text_200" text-rendering="inherit" font-size="12" dy=".8em" y="385.69999823719263" x="672.5000002905726">anchor的范围，按需调整候选框的大小，进行多尺度测试等</text></g></g><g id="minder_node37" opacity="1"><g id="node_expander34" style="cursor: pointer;" display="none"><path id="kity_path_389" fill="white" stroke="gray" d="M1008.5000052079558,441.49999897927046A6,6,0,1,1,996.5000052079558,441.49999897927046A6,6,0,1,1,1008.5000052079558,441.49999897927046"></path><path id="kity_path_390" fill="none" stroke="gray"></path></g><path id="node_outline35" fill="none" stroke="none" d="M690.5000006332994,430.49999897927046h301a5,5,0,0,1,5,5v12a5,5,0,0,1,-5,5h-301a5,5,0,0,1,-5,-5v-12a5,5,0,0,1,5,-5z" stroke-width="3"></path><g id="node_text35" fill="black"><text id="kity_text_202" text-rendering="inherit" font-size="12" dy=".8em" y="433.69999895244837" x="695.5000006332994">参考文章：https://zhuanlan.zhihu.com/p/55824651</text></g></g><g id="minder_node38"><g id="node_expander40" style="cursor: pointer;"><path id="kity_path_407" fill="white" stroke="gray" d="M1204.5000081285834,575.5000009760261A6,6,0,1,1,1192.5000081285834,575.5000009760261A6,6,0,1,1,1204.5000081285834,575.5000009760261"></path><path id="kity_path_408" fill="none" stroke="gray" d="M1194.0000081285834,575.5000009760261L1203.0000081285834,575.5000009760261"></path></g><path id="node_outline41" fill="none" stroke="none" d="M1038.5000058189034,564.5000009760261h149a5,5,0,0,1,5,5v12a5,5,0,0,1,-5,5h-149a5,5,0,0,1,-5,-5v-12a5,5,0,0,1,5,-5z"></path><g id="node_text41" fill="black"><text id="kity_text_214" text-rendering="inherit" font-size="12" dy=".8em" y="567.700000949204" x="1043.5000058189034">3.改进模型的ROI Pooling</text></g></g><g id="minder_node39"><g id="node_expander36" display="none" style="cursor: pointer;"><path id="kity_path_395" fill="white" stroke="gray" d="M1005.5000051632524,497.4999998137355A6,6,0,1,1,993.5000051632524,497.4999998137355A6,6,0,1,1,1005.5000051632524,497.4999998137355"></path><path id="kity_path_396" fill="none" stroke="gray"></path></g><path id="node_outline37" fill="none" stroke="none" d="M825.5000026449561,486.4999998137355h163a5,5,0,0,1,5,5v12a5,5,0,0,1,-5,5h-163a5,5,0,0,1,-5,-5v-12a5,5,0,0,1,5,-5z"></path><g id="node_text37" fill="black"><text id="kity_text_206" text-rendering="inherit" font-size="12" dy=".8em" y="489.6999997869134" x="830.5000026449561">ROI Pooling 转到 ROI align</text></g></g><g id="minder_node40"><g id="node_expander37" display="none" style="cursor: pointer;"><path id="kity_path_398" fill="white" stroke="gray" d="M1005.5000051632524,549.5000005885959A6,6,0,1,1,993.5000051632524,549.5000005885959A6,6,0,1,1,1005.5000051632524,549.5000005885959"></path><path id="kity_path_399" fill="none" stroke="gray"></path></g><path id="node_outline38" fill="none" stroke="none" d="M687.5000005885959,538.5000005885959h301a5,5,0,0,1,5,5v12a5,5,0,0,1,-5,5h-301a5,5,0,0,1,-5,-5v-12a5,5,0,0,1,5,-5z"></path><g id="node_text38" fill="black"><text id="kity_text_208" text-rendering="inherit" font-size="12" dy=".8em" y="541.7000005617738" x="692.5000005885959">参考文章：https://zhuanlan.zhihu.com/p/73138740</text></g></g><g id="minder_node41"><g id="node_expander38" display="none" style="cursor: pointer;"><path id="kity_path_401" fill="white" stroke="gray" d="M1005.5000051632524,601.5000013634562A6,6,0,1,1,993.5000051632524,601.5000013634562A6,6,0,1,1,1005.5000051632524,601.5000013634562"></path><path id="kity_path_402" fill="none" stroke="gray"></path></g><path id="node_outline39" fill="none" stroke="none" d="M797.5000022277236,590.5000013634562h191a5,5,0,0,1,5,5v12a5,5,0,0,1,-5,5h-191a5,5,0,0,1,-5,-5v-12a5,5,0,0,1,5,-5z"></path><g id="node_text39" fill="black"><text id="kity_text_210" text-rendering="inherit" font-size="12" dy=".8em" y="593.7000013366342" x="802.5000022277236">采用Context-Aware RoI Pooling</text></g></g><g id="minder_node42"><g id="node_expander39" display="none" style="cursor: pointer;"><path id="kity_path_404" fill="white" stroke="gray" d="M1005.5000051632524,653.5000021383166A6,6,0,1,1,993.5000051632524,653.5000021383166A6,6,0,1,1,1005.5000051632524,653.5000021383166"></path><path id="kity_path_405" fill="none" stroke="gray"></path></g><path id="node_outline40" fill="none" stroke="none" d="M444.4999969676137,642.5000021383166h544a5,5,0,0,1,5,5v12a5,5,0,0,1,-5,5h-544a5,5,0,0,1,-5,-5v-12a5,5,0,0,1,5,-5z"></path><g id="node_text40" fill="black"><text id="kity_text_212" text-rendering="inherit" font-size="12" dy=".8em" y="645.7000021114945" x="449.4999969676137">参考文章：SINet: A Scale-Insensitive Convolutional Neural Network for Fast Vehicle Detection</text></g></g><g id="minder_node43"><g id="node_expander44" style="cursor: pointer;"><path id="kity_path_419" fill="white" stroke="gray" d="M1204.5000081285834,757.5000036880374A6,6,0,1,1,1192.5000081285834,757.5000036880374A6,6,0,1,1,1204.5000081285834,757.5000036880374"></path><path id="kity_path_420" fill="none" stroke="gray" d="M1194.0000081285834,757.5000036880374L1203.0000081285834,757.5000036880374"></path></g><path id="node_outline45" fill="none" stroke="none" d="M1033.5000057443976,746.5000036880374h154a5,5,0,0,1,5,5v12a5,5,0,0,1,-5,5h-154a5,5,0,0,1,-5,-5v-12a5,5,0,0,1,5,-5z"></path><g id="node_text45" fill="black"><text id="kity_text_222" text-rendering="inherit" font-size="12" dy=".8em" y="749.7000036612153" x="1038.5000057443976">4.针对小目标进行数据增强</text></g></g><g id="minder_node44"><g id="node_expander41" display="none" style="cursor: pointer;"><path id="kity_path_410" fill="white" stroke="gray" d="M1000.5000050887465,705.500002913177A6,6,0,1,1,988.5000050887465,705.500002913177A6,6,0,1,1,1000.5000050887465,705.500002913177"></path><path id="kity_path_411" fill="none" stroke="gray"></path></g><path id="node_outline42" fill="none" stroke="none" d="M680.5000004842877,694.500002913177h303a5,5,0,0,1,5,5v12a5,5,0,0,1,-5,5h-303a5,5,0,0,1,-5,-5v-12a5,5,0,0,1,5,-5z"></path><g id="node_text42" fill="black"><text id="kity_text_216" text-rendering="inherit" font-size="12" dy=".8em" y="697.7000028863549" x="685.5000004842877">参考文章：Augmentation for small object detection</text></g></g><g id="minder_node45"><g id="node_expander42" display="none" style="cursor: pointer;"><path id="kity_path_413" fill="white" stroke="gray" d="M1000.5000050887465,757.5000036880374A6,6,0,1,1,988.5000050887465,757.5000036880374A6,6,0,1,1,1000.5000050887465,757.5000036880374"></path><path id="kity_path_414" fill="none" stroke="gray"></path></g><path id="node_outline43" fill="none" stroke="none" d="M762.500001706183,746.5000036880374h221a5,5,0,0,1,5,5v12a5,5,0,0,1,-5,5h-221a5,5,0,0,1,-5,-5v-12a5,5,0,0,1,5,-5z"></path><g id="node_text43" fill="black"><text id="kity_text_218" text-rendering="inherit" font-size="12" dy=".8em" y="749.7000036612153" x="767.500001706183">对小目标进行过采样（oversampling）</text></g></g><g id="minder_node46"><g id="node_expander43" display="none" style="cursor: pointer;"><path id="kity_path_416" fill="white" stroke="gray" d="M1000.5000050887465,809.5000044628978A6,6,0,1,1,988.5000050887465,809.5000044628978A6,6,0,1,1,1000.5000050887465,809.5000044628978"></path><path id="kity_path_417" fill="none" stroke="gray"></path></g><path id="node_outline44" fill="none" stroke="none" d="M666.5000002756715,798.5000044628978h317a5,5,0,0,1,5,5v12a5,5,0,0,1,-5,5h-317a5,5,0,0,1,-5,-5v-12a5,5,0,0,1,5,-5z"></path><g id="node_text44" fill="black"><text id="kity_text_220" text-rendering="inherit" font-size="12" dy=".8em" y="801.7000044360757" x="671.5000002756715">对小目标在图片中复制多份（Copy-Pasting Strategies）</text></g></g><g id="minder_node47"><g id="node_expander46" style="cursor: pointer;"><path id="kity_path_425" fill="white" stroke="gray" d="M1191.5000079348683,883.5000055655837A6,6,0,1,1,1179.5000079348683,883.5000055655837A6,6,0,1,1,1191.5000079348683,883.5000055655837"></path><path id="kity_path_426" fill="none" stroke="gray" d="M1181.0000079348683,883.5000055655837L1190.0000079348683,883.5000055655837"></path></g><path id="node_outline47" fill="none" stroke="none" d="M934.5000042691827,863.5000055655837h240a5,5,0,0,1,5,5v30a5,5,0,0,1,-5,5h-240a5,5,0,0,1,-5,-5v-30a5,5,0,0,1,5,-5z"></path><g id="node_text47" fill="black"><text id="kity_text_226" text-rendering="inherit" font-size="12" dy=".8em" y="866.7000055387616" x="939.5000042691827">5.用生成式对抗网络检测小目标</text><text id="kity_text_227" text-rendering="inherit" font-size="12" dy=".8em" y="884.7000055387616" x="939.5000042691827">提高小物体的特征表示，使之与大物体类似</text></g></g><g id="minder_node48"><g id="node_expander45" display="none" style="cursor: pointer;"><path id="kity_path_422" fill="white" stroke="gray" d="M901.5000036135316,883.5000055655837A6,6,0,1,1,889.5000036135316,883.5000055655837A6,6,0,1,1,901.5000036135316,883.5000055655837"></path><path id="kity_path_423" fill="none" stroke="gray"></path></g><path id="node_outline46" fill="none" stroke="none" d="M406.4999964013696,872.5000055655837h478a5,5,0,0,1,5,5v12a5,5,0,0,1,-5,5h-478a5,5,0,0,1,-5,-5v-12a5,5,0,0,1,5,-5z"></path><g id="node_text46" fill="black"><text id="kity_text_224" text-rendering="inherit" font-size="12" dy=".8em" y="875.7000055387616" x="411.4999964013696">参考文章：Perceptual Generative Adversarial Networks for Small Object Detection</text></g></g><g id="minder_node49"><g id="node_expander50" style="cursor: pointer;"><path id="kity_path_437" fill="white" stroke="gray" d="M1204.5000081285834,983.5000070556998A6,6,0,1,1,1192.5000081285834,983.5000070556998A6,6,0,1,1,1204.5000081285834,983.5000070556998"></path><path id="kity_path_438" fill="none" stroke="gray" d="M1194.0000081285834,983.5000070556998L1203.0000081285834,983.5000070556998"></path></g><path id="node_outline51" fill="none" stroke="none" d="M962.5000046864152,972.5000070556998h225a5,5,0,0,1,5,5v12a5,5,0,0,1,-5,5h-225a5,5,0,0,1,-5,-5v-12a5,5,0,0,1,5,-5z"></path><g id="node_text51" fill="black"><text id="kity_text_235" text-rendering="inherit" font-size="12" dy=".8em" y="975.7000070288777" x="967.5000046864152">6.有多尺度特征后，改进特征融合的方式</text></g></g><g id="minder_node50"><g id="node_expander47" display="none" style="cursor: pointer;"><path id="kity_path_428" fill="white" stroke="gray" d="M929.5000040307641,931.5000062808394A6,6,0,1,1,917.5000040307641,931.5000062808394A6,6,0,1,1,929.5000040307641,931.5000062808394"></path><path id="kity_path_429" fill="none" stroke="gray"></path></g><path id="node_outline48" fill="none" stroke="none" d="M785.5000020489097,920.5000062808394h127a5,5,0,0,1,5,5v12a5,5,0,0,1,-5,5h-127a5,5,0,0,1,-5,-5v-12a5,5,0,0,1,5,-5z"></path><g id="node_text48" fill="black"><text id="kity_text_229" text-rendering="inherit" font-size="12" dy=".8em" y="923.7000062540174" x="790.5000020489097">SSH context module</text></g></g><g id="minder_node51"><g id="node_expander48" display="none" style="cursor: pointer;"><path id="kity_path_431" fill="white" stroke="gray" d="M929.5000040307641,983.5000070556998A6,6,0,1,1,917.5000040307641,983.5000070556998A6,6,0,1,1,929.5000040307641,983.5000070556998"></path><path id="kity_path_432" fill="none" stroke="gray"></path></g><path id="node_outline49" fill="none" stroke="none" d="M497.49999775737524,972.5000070556998h415a5,5,0,0,1,5,5v12a5,5,0,0,1,-5,5h-415a5,5,0,0,1,-5,-5v-12a5,5,0,0,1,5,-5z"></path><g id="node_text49" fill="black"><text id="kity_text_231" text-rendering="inherit" font-size="12" dy=".8em" y="975.7000070288777" x="502.49999775737524">PyramidBox(PyramidBox: A Context-assisted Single Shot Face Detecto)</text></g></g><g id="minder_node52"><g id="node_expander49" display="none" style="cursor: pointer;"><path id="kity_path_434" fill="white" stroke="gray" d="M929.5000040307641,1035.5000078305602A6,6,0,1,1,917.5000040307641,1035.5000078305602A6,6,0,1,1,929.5000040307641,1035.5000078305602"></path><path id="kity_path_435" fill="none" stroke="gray"></path></g><path id="node_outline50" fill="none" stroke="none" d="M676.5000004246831,1024.5000078305602h236a5,5,0,0,1,5,5v12a5,5,0,0,1,-5,5h-236a5,5,0,0,1,-5,-5v-12a5,5,0,0,1,5,-5z"></path><g id="node_text50" fill="black"><text id="kity_text_233" text-rendering="inherit" font-size="12" dy=".8em" y="1027.7000078037381" x="681.5000004246831">Relation Networks for Object Detection</text></g></g><g id="kity_g_12" display="none"><path id="kity_path_13" fill="none" stroke="rgb(66, 94, 112)" d="M591.5000145211816,375.5000008419156h402a5,5,0,0,1,5,5v12a5,5,0,0,1,-5,5h-402a5,5,0,0,1,-5,-5v-12a5,5,0,0,1,5,-5z" stroke-width="5"></path></g><g id="minder_node15" display="none"><g id="node_expander10" style="cursor: pointer;" display="none"><path id="kity_path_317" fill="white" stroke="gray" d="M419.4999964311719,242.49999601393938A6,6,0,1,1,407.4999964311719,242.49999601393938A6,6,0,1,1,419.4999964311719,242.49999601393938"></path><path id="kity_path_318" fill="none" stroke="gray"></path></g><path id="node_outline11" fill="none" stroke="none" d="M402.4999963417649,231.49999601393938h236a5,5,0,0,1,5,5v12a5,5,0,0,1,-5,5h-236a5,5,0,0,1,-5,-5v-12a5,5,0,0,1,5,-5z"></path><g id="node_text11" fill="black"><text id="kity_text_152" text-rendering="inherit" font-size="12" dy=".8em" y="234.6999959871173" x="407.4999963417649">论文：https://arxiv.org/abs/1803.01534</text></g></g><g id="minder_node16" display="none"><g id="node_expander11" style="cursor: pointer;" display="none"><path id="kity_path_320" fill="white" stroke="gray" d="M419.4999964311719,272.4999964609742A6,6,0,1,1,407.4999964311719,272.4999964609742A6,6,0,1,1,419.4999964311719,272.4999964609742"></path><path id="kity_path_321" fill="none" stroke="gray"></path></g><path id="node_outline12" fill="none" stroke="none" d="M402.4999963417649,261.4999964609742h269a5,5,0,0,1,5,5v12a5,5,0,0,1,-5,5h-269a5,5,0,0,1,-5,-5v-12a5,5,0,0,1,5,-5z"></path><g id="node_text12" fill="black"><text id="kity_text_154" text-rendering="inherit" font-size="12" dy=".8em" y="264.6999964341521" x="407.4999963417649">代码：https://github.com/ShuLiu1993/PANet</text></g></g><g id="minder_node14" display="none"><g id="node_expander12" style="cursor: pointer;" display="none"><path id="kity_path_323" fill="white" stroke="gray" d="M459.49999702721834,272.4999964609742A6,6,0,1,1,447.49999702721834,272.4999964609742A6,6,0,1,1,459.49999702721834,272.4999964609742"></path><path id="kity_path_324" fill="none" stroke="gray" d="M448.99999702721834,272.4999964609742L457.99999702721834,272.4999964609742M453.49999702721834,267.9999964609742L453.49999702721834,276.9999964609742"></path></g><path id="node_outline13" fill="none" stroke="none" d="M442.4999969378114,252.49999646097422h359a5,5,0,0,1,5,5v30a5,5,0,0,1,-5,5h-359a5,5,0,0,1,-5,-5v-30a5,5,0,0,1,5,-5z" stroke-width="3"></path><g id="node_text13" fill="black"><text id="kity_text_156" text-rendering="inherit" font-size="12" dy=".8em" y="255.69999643415213" x="447.4999969378114">PANet：增强FPN的多尺度融合信息；创建了自下而上的路径增强</text><text id="kity_text_157" text-rendering="inherit" font-size="12" dy=".8em" y="273.6999964341521" x="447.4999969378114">缩短信息路径和用低层级的准确定位信息增强特征金字塔</text></g></g><g id="minder_node18" display="none"><g id="node_expander13" style="cursor: pointer;" display="none"><path id="kity_path_326" fill="white" stroke="gray" d="M278.49999433010817,271.49999644607306A6,6,0,1,1,266.49999433010817,271.49999644607306A6,6,0,1,1,278.49999433010817,271.49999644607306"></path><path id="kity_path_327" fill="none" stroke="gray"></path></g><path id="node_outline14" fill="none" stroke="none" d="M261.4999942407012,260.49999644607306h258a5,5,0,0,1,5,5v12a5,5,0,0,1,-5,5h-258a5,5,0,0,1,-5,-5v-12a5,5,0,0,1,5,-5z"></path><g id="node_text14" fill="black"><text id="kity_text_159" text-rendering="inherit" font-size="12" dy=".8em" y="263.69999641925097" x="266.4999942407012">论文：https://arxiv.org/pdf/1903.11752.pdf</text></g></g><g id="minder_node19" display="none"><g id="node_expander14" style="cursor: pointer;" display="none"><path id="kity_path_329" fill="white" stroke="gray" d="M278.49999433010817,301.4999968931079A6,6,0,1,1,266.49999433010817,301.4999968931079A6,6,0,1,1,278.49999433010817,301.4999968931079"></path><path id="kity_path_330" fill="none" stroke="gray"></path></g><path id="node_outline15" fill="none" stroke="none" d="M261.4999942407012,290.4999968931079h356a5,5,0,0,1,5,5v12a5,5,0,0,1,-5,5h-356a5,5,0,0,1,-5,-5v-12a5,5,0,0,1,5,-5z"></path><g id="node_text15" fill="black"><text id="kity_text_161" text-rendering="inherit" font-size="12" dy=".8em" y="293.6999968662858" x="266.4999942407012">代码：https://github.com/ouyanghuiyu/Thundernet_Pytorch</text></g></g><g id="minder_node17" display="none"><g id="node_expander15" style="cursor: pointer;" display="none"><path id="kity_path_332" fill="white" stroke="gray" d="M318.4999949261546,301.4999968931079A6,6,0,1,1,306.4999949261546,301.4999968931079A6,6,0,1,1,318.4999949261546,301.4999968931079"></path><path id="kity_path_333" fill="none" stroke="gray" d="M307.9999949261546,301.4999968931079L316.9999949261546,301.4999968931079M312.4999949261546,296.9999968931079L312.4999949261546,305.9999968931079"></path></g><path id="node_outline16" fill="none" stroke="none" d="M301.49999483674765,290.4999968931079h80a5,5,0,0,1,5,5v12a5,5,0,0,1,-5,5h-80a5,5,0,0,1,-5,-5v-12a5,5,0,0,1,5,-5z" stroke-width="3"></path><g id="node_text16" fill="black"><text id="kity_text_163" text-rendering="inherit" font-size="12" dy=".8em" y="293.6999968662858" x="306.49999483674765">ThunderNet</text></g></g><g id="minder_node21" display="none"><g id="node_expander16" style="cursor: pointer;" display="none"><path id="kity_path_335" fill="white" stroke="gray" d="M439.4999967291951,308.499996997416A6,6,0,1,1,427.4999967291951,308.499996997416A6,6,0,1,1,439.4999967291951,308.499996997416"></path><path id="kity_path_336" fill="none" stroke="gray"></path></g><path id="node_outline17" fill="none" stroke="none" d="M422.49999663978815,297.499996997416h258a5,5,0,0,1,5,5v12a5,5,0,0,1,-5,5h-258a5,5,0,0,1,-5,-5v-12a5,5,0,0,1,5,-5z"></path><g id="node_text17" fill="black"><text id="kity_text_165" text-rendering="inherit" font-size="12" dy=".8em" y="300.69999697059393" x="427.49999663978815">论文：https://arxiv.org/pdf/1904.02701.pdf</text></g></g><g id="minder_node22" display="none"><g id="node_expander17" style="cursor: pointer;" display="none"><path id="kity_path_338" fill="white" stroke="gray" d="M438.49999671429396,332.4999973550439A6,6,0,1,1,426.49999671429396,332.4999973550439A6,6,0,1,1,438.49999671429396,332.4999973550439"></path><path id="kity_path_339" fill="none" stroke="gray"></path></g><path id="node_outline18" fill="none" stroke="none" d="M421.499996624887,321.4999973550439h305a5,5,0,0,1,5,5v12a5,5,0,0,1,-5,5h-305a5,5,0,0,1,-5,-5v-12a5,5,0,0,1,5,-5z"></path><g id="node_text18" fill="black"><text id="kity_text_167" text-rendering="inherit" font-size="12" dy=".8em" y="324.6999973282218" x="426.499996624887">代码：https://github.com/OceanPang/Libra_R-CNN</text></g></g><g id="minder_node20" display="none"><g id="node_expander18" style="cursor: pointer;" display="none"><path id="kity_path_341" fill="white" stroke="gray" d="M478.4999973103404,332.4999973550439A6,6,0,1,1,466.4999973103404,332.4999973550439A6,6,0,1,1,478.4999973103404,332.4999973550439"></path><path id="kity_path_342" fill="none" stroke="gray" d="M467.9999973103404,332.4999973550439L476.9999973103404,332.4999973550439M472.4999973103404,327.9999973550439L472.4999973103404,336.9999973550439"></path></g><path id="node_outline19" fill="none" stroke="none" d="M461.49999722093344,321.4999973550439h82a5,5,0,0,1,5,5v12a5,5,0,0,1,-5,5h-82a5,5,0,0,1,-5,-5v-12a5,5,0,0,1,5,-5z" stroke-width="3"></path><g id="node_text19" fill="black"><text id="kity_text_169" text-rendering="inherit" font-size="12" dy=".8em" y="324.6999973282218" x="466.49999722093344">Libra R-CNN</text></g></g></g></g></svg>