<svg id="kity_svg_6" xmlns="http://www.w3.org/2000/svg" xmlns:xlink="http://www.w3.org/1999/xlink" version="1.1" width="1577" height="1115" style="background: rgb(251, 251, 251); visibility: visible;" viewBox="0 0 1577 1115"><defs id="kity_defs_7"><linearGradient id="kity_linearGradient_17" x1="0" y1="0" x2="0" y2="1"><stop id="kity_stop_18" offset="0" stop-color="rgb(255, 255, 255)"></stop><stop id="kity_stop_19" offset="1" stop-color="rgb(204, 204, 204)"></stop></linearGradient><marker id="kity_marker_2" orient="auto" refX="6" refY="0" viewBox="-7 -7 14 14" markerWidth="7" markerHeight="7" markerUnits="userSpaceOnUse"><path id="kity_path_3" fill="rgb(115, 161, 191)" stroke="none" d="M6,0A6,6,0,1,1,-6,0A6,6,0,1,1,6,0"></path></marker></defs><g id="kity_g_8"><g id="minder1" text-rendering="optimize-speed"><g id="minder_connect_group1"><path id="kity_path_31" fill="none" stroke="rgb(115, 161, 191)" stroke-width="1" d="M419.500003926456,665.5000034198165A174,258,0,0,1,593.500003926456,407.5000034198165"></path><path id="kity_path_81" fill="none" stroke="rgb(115, 161, 191)" stroke-width="1" d="M419.500003926456,665.5000034198165A174,259,0,0,0,593.500003926456,924.5000034198165"></path><path id="kity_path_101" fill="none" stroke="rgb(115, 161, 191)" stroke-width="1" d="M419.500003926456,665.5000034198165A174,0,0,0,1,245.50000392645597,665.5000034198165"></path><path id="kity_path_487" fill="none" stroke="rgb(115, 161, 191)" stroke-width="1" d="M1328.500003926456,122.5000034198165C1343.500003926456,122.5000034198165,1343.500003926456,44.500003419816494,1358.500003926456,44.500003419816494L1444.500003926456,44.500003419816494"></path><path id="kity_path_488" fill="none" stroke="rgb(115, 161, 191)" stroke-width="1" d="M1328.500003926456,122.5000034198165C1343.500003926456,122.5000034198165,1343.500003926456,96.5000034198165,1358.500003926456,96.5000034198165L1439.500003926456,96.5000034198165"></path><path id="kity_path_489" fill="none" stroke="rgb(115, 161, 191)" stroke-width="1" d="M1328.500003926456,122.5000034198165C1343.500003926456,122.5000034198165,1343.500003926456,148.5000034198165,1358.500003926456,148.5000034198165L1433.500003926456,148.5000034198165"></path><path id="kity_path_490" fill="none" stroke="rgb(115, 161, 191)" stroke-width="1" d="M1328.500003926456,122.5000034198165C1343.500003926456,122.5000034198165,1343.500003926456,200.5000034198165,1358.500003926456,200.5000034198165L1497.500003926456,200.5000034198165"></path><path id="kity_path_491" fill="none" stroke="rgb(115, 161, 191)" stroke-width="1" d="M1182.500003926456,421.5000034198165C1197.500003926456,421.5000034198165,1197.500003926456,122.5000034198165,1212.500003926456,122.5000034198165L1328.500003926456,122.5000034198165"></path><path id="kity_path_492" fill="none" stroke="rgb(115, 161, 191)" stroke-width="1" d="M1316.500003926456,304.5000034198165C1331.500003926456,304.5000034198165,1331.500003926456,252.5000034198165,1346.500003926456,252.5000034198165L1428.500003926456,252.5000034198165"></path><path id="kity_path_493" fill="none" stroke="rgb(115, 161, 191)" stroke-width="1" d="M1316.500003926456,304.5000034198165C1331.500003926456,304.5000034198165,1331.500003926456,304.5000034198165,1346.500003926456,304.5000034198165L1399.500003926456,304.5000034198165"></path><path id="kity_path_494" fill="none" stroke="rgb(115, 161, 191)" stroke-width="1" d="M1316.500003926456,304.5000034198165C1331.500003926456,304.5000034198165,1331.500003926456,356.5000034198165,1346.500003926456,356.5000034198165L1414.500003926456,356.5000034198165"></path><path id="kity_path_495" fill="none" stroke="rgb(115, 161, 191)" stroke-width="1" d="M1182.500003926456,421.5000034198165C1197.500003926456,421.5000034198165,1197.500003926456,304.5000034198165,1212.500003926456,304.5000034198165L1316.500003926456,304.5000034198165"></path><path id="kity_path_496" fill="none" stroke="rgb(115, 161, 191)" stroke-width="1" d="M1434.500003926456,408.5000034198165C1449.500003926456,408.5000034198165,1449.500003926456,408.5000034198165,1464.500003926456,408.5000034198165L1556.500003926456,408.5000034198165"></path><path id="kity_path_497" fill="none" stroke="rgb(115, 161, 191)" stroke-width="1" d="M1337.500003926456,460.5000034198165C1352.500003926456,460.5000034198165,1352.500003926456,408.5000034198165,1367.500003926456,408.5000034198165L1434.500003926456,408.5000034198165"></path><path id="kity_path_498" fill="none" stroke="rgb(115, 161, 191)" stroke-width="1" d="M1337.500003926456,460.5000034198165C1352.500003926456,460.5000034198165,1352.500003926456,460.5000034198165,1367.500003926456,460.5000034198165L1472.500003926456,460.5000034198165"></path><path id="kity_path_499" fill="none" stroke="rgb(115, 161, 191)" stroke-width="1" d="M1337.500003926456,460.5000034198165C1352.500003926456,460.5000034198165,1352.500003926456,512.5000034198165,1367.500003926456,512.5000034198165L1488.500003926456,512.5000034198165"></path><path id="kity_path_500" fill="none" stroke="rgb(115, 161, 191)" stroke-width="1" d="M1182.500003926456,421.5000034198165C1197.500003926456,421.5000034198165,1197.500003926456,460.5000034198165,1212.500003926456,460.5000034198165L1337.500003926456,460.5000034198165"></path><path id="kity_path_501" fill="none" stroke="rgb(115, 161, 191)" stroke-width="1" d="M1304.500003926456,616.5000034198165C1319.500003926456,616.5000034198165,1319.500003926456,564.5000034198165,1334.500003926456,564.5000034198165L1401.500003926456,564.5000034198165"></path><path id="kity_path_502" fill="none" stroke="rgb(115, 161, 191)" stroke-width="1" d="M1304.500003926456,616.5000034198165C1319.500003926456,616.5000034198165,1319.500003926456,616.5000034198165,1334.500003926456,616.5000034198165L1421.500003926456,616.5000034198165"></path><path id="kity_path_503" fill="none" stroke="rgb(115, 161, 191)" stroke-width="1" d="M1304.500003926456,616.5000034198165C1319.500003926456,616.5000034198165,1319.500003926456,668.5000034198165,1334.500003926456,668.5000034198165L1442.500003926456,668.5000034198165"></path><path id="kity_path_504" fill="none" stroke="rgb(115, 161, 191)" stroke-width="1" d="M1182.500003926456,421.5000034198165C1197.500003926456,421.5000034198165,1197.500003926456,616.5000034198165,1212.500003926456,616.5000034198165L1304.500003926456,616.5000034198165"></path><path id="kity_path_505" fill="none" stroke="rgb(115, 161, 191)" stroke-width="1" d="M1341.500003926456,720.5000034198165C1356.500003926456,720.5000034198165,1356.500003926456,720.5000034198165,1371.500003926456,720.5000034198165L1448.500003926456,720.5000034198165"></path><path id="kity_path_506" fill="none" stroke="rgb(115, 161, 191)" stroke-width="1" d="M1182.500003926456,421.5000034198165C1197.500003926456,421.5000034198165,1197.500003926456,720.5000034198165,1212.500003926456,720.5000034198165L1341.500003926456,720.5000034198165"></path><path id="kity_path_507" fill="none" stroke="rgb(115, 161, 191)" stroke-width="1" d="M1043.500003926456,421.5000034198165C1058.500003926456,421.5000034198165,1058.500003926456,421.5000034198165,1073.500003926456,421.5000034198165L1182.500003926456,421.5000034198165"></path><path id="kity_path_508" fill="none" stroke="rgb(115, 161, 191)" stroke-width="1" d="M916.500003926456,421.5000034198165C931.500003926456,421.5000034198165,931.500003926456,421.5000034198165,946.500003926456,421.5000034198165L1043.500003926456,421.5000034198165"></path><path id="kity_path_509" fill="none" stroke="rgb(115, 161, 191)" stroke-width="1" d="M808.500003926456,421.5000034198165C823.500003926456,421.5000034198165,823.500003926456,421.5000034198165,838.500003926456,421.5000034198165L916.500003926456,421.5000034198165"></path><path id="kity_path_510" fill="none" stroke="rgb(115, 161, 191)" stroke-width="1" d="M707.500003926456,407.5000034198165C722.500003926456,407.5000034198165,722.500003926456,421.5000034198165,737.500003926456,421.5000034198165L808.500003926456,421.5000034198165"></path><path id="kity_path_520" fill="none" stroke="rgb(115, 161, 191)" stroke-width="1" d="M146.50000392645597,665.5000034198165C131.50000392645597,665.5000034198165,131.50000392645597,627.5000034198165,116.50000392645597,627.5000034198165L19.500003926455975,627.5000034198165"></path><path id="kity_path_521" fill="none" stroke="rgb(115, 161, 191)" stroke-width="1" d="M146.50000392645597,665.5000034198165C131.50000392645597,665.5000034198165,131.50000392645597,679.5000034198165,116.50000392645597,679.5000034198165L22.500003926455975,679.5000034198165"></path><path id="kity_path_522" fill="none" stroke="rgb(115, 161, 191)" stroke-width="1" d="M146.50000392645597,665.5000034198165C131.50000392645597,665.5000034198165,131.50000392645597,731.5000034198165,116.50000392645597,731.5000034198165L58.500003926455975,731.5000034198165"></path><path id="kity_path_548" fill="none" stroke="rgb(115, 161, 191)" stroke-width="1" d="M707.500003926456,924.5000034198165C722.500003926456,924.5000034198165,722.500003926456,938.5000034198165,737.500003926456,938.5000034198165L819.500003926456,938.5000034198165"></path><path id="kity_path_573" fill="none" stroke="rgb(115, 161, 191)" stroke-width="1" d="M819.500003926456,938.5000034198165C834.500003926456,938.5000034198165,834.500003926456,782.5000034198165,849.500003926456,782.5000034198165L906.500003926456,782.5000034198165"></path><path id="kity_path_574" fill="none" stroke="rgb(115, 161, 191)" stroke-width="1" d="M819.500003926456,938.5000034198165C834.500003926456,938.5000034198165,834.500003926456,834.5000034198165,849.500003926456,834.5000034198165L921.500003926456,834.5000034198165"></path><path id="kity_path_575" fill="none" stroke="rgb(115, 161, 191)" stroke-width="1" d="M902.500003926456,964.5000034198165C917.500003926456,964.5000034198165,917.500003926456,886.5000034198165,932.500003926456,886.5000034198165L998.500003926456,886.5000034198165"></path><path id="kity_path_576" fill="none" stroke="rgb(115, 161, 191)" stroke-width="1" d="M902.500003926456,964.5000034198165C917.500003926456,964.5000034198165,917.500003926456,938.5000034198165,932.500003926456,938.5000034198165L994.500003926456,938.5000034198165"></path><path id="kity_path_577" fill="none" stroke="rgb(115, 161, 191)" stroke-width="1" d="M902.500003926456,964.5000034198165C917.500003926456,964.5000034198165,917.500003926456,990.5000034198165,932.500003926456,990.5000034198165L997.500003926456,990.5000034198165"></path><path id="kity_path_578" fill="none" stroke="rgb(115, 161, 191)" stroke-width="1" d="M902.500003926456,964.5000034198165C917.500003926456,964.5000034198165,917.500003926456,1042.5000034198165,932.500003926456,1042.5000034198165L991.500003926456,1042.5000034198165"></path><path id="kity_path_579" fill="none" stroke="rgb(115, 161, 191)" stroke-width="1" d="M819.500003926456,938.5000034198165C834.500003926456,938.5000034198165,834.500003926456,964.5000034198165,849.500003926456,964.5000034198165L902.500003926456,964.5000034198165"></path><path id="kity_path_580" fill="none" stroke="rgb(115, 161, 191)" stroke-width="1" d="M819.500003926456,938.5000034198165C834.500003926456,938.5000034198165,834.500003926456,1094.5000034198165,849.500003926456,1094.5000034198165L906.500003926456,1094.5000034198165"></path></g><g id="minder_node1"><path id="node_outline1" fill="rgb(115, 161, 191)" stroke="rgb(115, 161, 191)" d="M368.500003926456,645.5000034198165h102a5,5,0,0,1,5,5v30a5,5,0,0,1,-5,5h-102a5,5,0,0,1,-5,-5v-30a5,5,0,0,1,5,-5z" stroke-width="3"></path><g id="node_text1" fill="white"><text id="kity_text_22" text-rendering="inherit" font-size="16" dy=".8em" y="655.1000033840537" x="387.500003926456">目标检测</text></g></g><g id="kity_g_14" display="none"><path id="kity_path_15" fill="rgba(0, 92, 153, 0.5)" stroke="none" d="M-248.49999607354403,910.5000034198165h56v15h-56z"></path><path id="kity_path_16" fill="none" stroke="rgb(0, 76, 128)" d="M-248.49999607354403,910.5000034198165L-192.49999607354403,910.5000034198165" stroke-width="1"></path></g><g id="minder_node2" opacity="1"><g id="node_expander25" style="cursor: pointer;"><path id="kity_path_313" fill="white" stroke="gray" d="M594.5000069215894,407.4999995753169A6,6,0,1,1,582.5000069215894,407.4999995753169A6,6,0,1,1,594.5000069215894,407.4999995753169"></path><path id="kity_path_314" fill="none" stroke="gray" d="M584.0000069215894,407.4999995753169L593.0000069215894,407.4999995753169"></path></g><path id="node_outline26" fill="rgb(238, 243, 246)" stroke="rgb(115, 161, 191)" d="M598.5000073239207,394.4999995753169h106a3,3,0,0,1,3,3v20a3,3,0,0,1,-3,3h-106a3,3,0,0,1,-3,-3v-20a3,3,0,0,1,3,-3z" stroke-width="1"></path><g id="node_text26" fill="black"><text id="kity_text_163" text-rendering="inherit" font-size="14" dy=".8em" y="398.39999954402447" x="615.5000073239207">Two-Stage</text></g></g><g id="minder_node27" opacity="1"><g id="node_expander35" style="cursor: pointer;"><path id="kity_path_343" fill="white" stroke="gray" d="M594.5000069215894,924.5000072792172A6,6,0,1,1,582.5000069215894,924.5000072792172A6,6,0,1,1,594.5000069215894,924.5000072792172"></path><path id="kity_path_344" fill="none" stroke="gray" d="M584.0000069215894,924.5000072792172L593.0000069215894,924.5000072792172"></path></g><path id="node_outline36" fill="rgb(238, 243, 246)" stroke="rgb(115, 161, 191)" d="M598.5000073239207,911.5000072792172h106a3,3,0,0,1,3,3v20a3,3,0,0,1,-3,3h-106a3,3,0,0,1,-3,-3v-20a3,3,0,0,1,3,-3z" stroke-width="1"></path><g id="node_text36" fill="black"><text id="kity_text_183" text-rendering="inherit" font-size="14" dy=".8em" y="915.4000072479248" x="615.5000073239207">One-Stage</text></g></g><g id="minder_node37" opacity="1"><g id="node_expander39" style="cursor: pointer;"><path id="kity_path_355" fill="white" stroke="gray" d="M256.5000018849969,665.5000034198165A6,6,0,1,1,244.5000018849969,665.5000034198165A6,6,0,1,1,256.5000018849969,665.5000034198165"></path><path id="kity_path_356" fill="none" stroke="gray" d="M246.0000018849969,665.5000034198165L255.0000018849969,665.5000034198165"></path></g><path id="node_outline40" fill="rgb(238, 243, 246)" stroke="rgb(115, 161, 191)" d="M149.50000063329935,652.5000034198165h91a3,3,0,0,1,3,3v20a3,3,0,0,1,-3,3h-91a3,3,0,0,1,-3,-3v-20a3,3,0,0,1,3,-3z" stroke-width="1"></path><g id="node_text40" fill="black"><text id="kity_text_191" text-rendering="inherit" font-size="14" dy=".8em" y="656.400003388524" x="166.50000063329935">传统方法</text></g></g><g id="minder_node8"><g id="node_expander1" style="cursor: pointer;" display="none"><path id="kity_path_241" fill="white" stroke="gray" d="M1368.5000184550881,30.499993957579136A6,6,0,1,1,1356.5000184550881,30.499993957579136A6,6,0,1,1,1368.5000184550881,30.499993957579136"></path><path id="kity_path_242" fill="none" stroke="gray"></path></g><path id="node_outline2" fill="none" stroke="none" d="M1373.5000186935067,19.499993957579136h66a5,5,0,0,1,5,5v12a5,5,0,0,1,-5,5h-66a5,5,0,0,1,-5,-5v-12a5,5,0,0,1,5,-5z"></path><g id="node_text2" fill="black"><text id="kity_text_115" text-rendering="inherit" font-size="12" dy=".8em" y="22.699993930757046" x="1378.5000186935067">HyperNet</text></g></g><g id="minder_node9"><g id="node_expander2" style="cursor: pointer;" display="none"><path id="kity_path_244" fill="white" stroke="gray" d="M1368.5000184550881,82.49999473243952A6,6,0,1,1,1356.5000184550881,82.49999473243952A6,6,0,1,1,1368.5000184550881,82.49999473243952"></path><path id="kity_path_245" fill="none" stroke="gray"></path></g><path id="node_outline3" fill="none" stroke="none" d="M1373.5000186935067,71.49999473243952h61a5,5,0,0,1,5,5v12a5,5,0,0,1,-5,5h-61a5,5,0,0,1,-5,-5v-12a5,5,0,0,1,5,-5z"></path><g id="node_text3" fill="black"><text id="kity_text_117" text-rendering="inherit" font-size="12" dy=".8em" y="74.69999470561743" x="1378.5000186935067">MS-CNN</text></g></g><g id="minder_node10"><g id="node_expander3" style="cursor: pointer;" display="none"><path id="kity_path_247" fill="white" stroke="gray" d="M1368.5000184550881,134.4999955072999A6,6,0,1,1,1356.5000184550881,134.4999955072999A6,6,0,1,1,1368.5000184550881,134.4999955072999"></path><path id="kity_path_248" fill="none" stroke="gray"></path></g><path id="node_outline4" fill="none" stroke="none" d="M1373.5000186935067,123.4999955072999h55a5,5,0,0,1,5,5v12a5,5,0,0,1,-5,5h-55a5,5,0,0,1,-5,-5v-12a5,5,0,0,1,5,-5z"></path><g id="node_text4" fill="black"><text id="kity_text_119" text-rendering="inherit" font-size="12" dy=".8em" y="126.69999548047781" x="1378.5000186935067">PVANet</text></g></g><g id="minder_node11"><g id="node_expander4" style="cursor: pointer;" display="none"><path id="kity_path_250" fill="white" stroke="gray" d="M1368.5000184550881,186.49999628216028A6,6,0,1,1,1356.5000184550881,186.49999628216028A6,6,0,1,1,1368.5000184550881,186.49999628216028"></path><path id="kity_path_251" fill="none" stroke="gray"></path></g><path id="node_outline5" fill="none" stroke="none" d="M1373.5000186935067,175.49999628216028h119a5,5,0,0,1,5,5v12a5,5,0,0,1,-5,5h-119a5,5,0,0,1,-5,-5v-12a5,5,0,0,1,5,-5z"></path><g id="node_text5" fill="black"><text id="kity_text_121" text-rendering="inherit" font-size="12" dy=".8em" y="178.6999962553382" x="1378.5000186935067">Light-Head R-CNN</text></g></g><g id="minder_node7"><g id="node_expander5" style="cursor: pointer;"><path id="kity_path_253" fill="white" stroke="gray" d="M1222.5000162795186,108.49999511986971A6,6,0,1,1,1210.5000162795186,108.49999511986971A6,6,0,1,1,1222.5000162795186,108.49999511986971"></path><path id="kity_path_254" fill="none" stroke="gray" d="M1212.0000162795186,108.49999511986971L1221.0000162795186,108.49999511986971"></path></g><path id="node_outline6" fill="none" stroke="none" d="M1227.5000165179372,97.49999511986971h96a5,5,0,0,1,5,5v12a5,5,0,0,1,-5,5h-96a5,5,0,0,1,-5,-5v-12a5,5,0,0,1,5,-5z"></path><g id="node_text6" fill="black"><text id="kity_text_123" text-rendering="inherit" font-size="12" dy=".8em" y="100.69999509304762" x="1232.5000165179372">更好的特征网络</text></g></g><g id="minder_node13"><g id="node_expander6" style="cursor: pointer;" display="none"><path id="kity_path_256" fill="white" stroke="gray" d="M1356.5000182762742,238.49999705702066A6,6,0,1,1,1344.5000182762742,238.49999705702066A6,6,0,1,1,1356.5000182762742,238.49999705702066"></path><path id="kity_path_257" fill="none" stroke="gray"></path></g><path id="node_outline7" fill="none" stroke="none" d="M1361.5000185146928,227.49999705702066h62a5,5,0,0,1,5,5v12a5,5,0,0,1,-5,5h-62a5,5,0,0,1,-5,-5v-12a5,5,0,0,1,5,-5z"></path><g id="node_text7" fill="black"><text id="kity_text_125" text-rendering="inherit" font-size="12" dy=".8em" y="230.69999703019857" x="1366.5000185146928">MR-CNN</text></g></g><g id="minder_node14"><g id="node_expander7" style="cursor: pointer;" display="none"><path id="kity_path_259" fill="white" stroke="gray" d="M1356.5000182762742,290.49999783188105A6,6,0,1,1,1344.5000182762742,290.49999783188105A6,6,0,1,1,1356.5000182762742,290.49999783188105"></path><path id="kity_path_260" fill="none" stroke="gray"></path></g><path id="node_outline8" fill="none" stroke="none" d="M1361.5000185146928,279.49999783188105h33a5,5,0,0,1,5,5v12a5,5,0,0,1,-5,5h-33a5,5,0,0,1,-5,-5v-12a5,5,0,0,1,5,-5z"></path><g id="node_text8" fill="black"><text id="kity_text_127" text-rendering="inherit" font-size="12" dy=".8em" y="282.69999780505896" x="1366.5000185146928">FPN</text></g></g><g id="minder_node15"><g id="node_expander8" style="cursor: pointer;" display="none"><path id="kity_path_262" fill="white" stroke="gray" d="M1356.5000182762742,342.4999986067414A6,6,0,1,1,1344.5000182762742,342.4999986067414A6,6,0,1,1,1356.5000182762742,342.4999986067414"></path><path id="kity_path_263" fill="none" stroke="gray"></path></g><path id="node_outline9" fill="none" stroke="none" d="M1361.5000185146928,331.4999986067414h48a5,5,0,0,1,5,5v12a5,5,0,0,1,-5,5h-48a5,5,0,0,1,-5,-5v-12a5,5,0,0,1,5,-5z"></path><g id="node_text9" fill="black"><text id="kity_text_129" text-rendering="inherit" font-size="12" dy=".8em" y="334.69999857991934" x="1366.5000185146928">CRAFT</text></g></g><g id="minder_node12"><g id="node_expander9" style="cursor: pointer;"><path id="kity_path_265" fill="white" stroke="gray" d="M1222.5000162795186,290.49999783188105A6,6,0,1,1,1210.5000162795186,290.49999783188105A6,6,0,1,1,1222.5000162795186,290.49999783188105"></path><path id="kity_path_266" fill="none" stroke="gray" d="M1212.0000162795186,290.49999783188105L1221.0000162795186,290.49999783188105"></path></g><path id="node_outline10" fill="none" stroke="none" d="M1227.5000165179372,279.49999783188105h84a5,5,0,0,1,5,5v12a5,5,0,0,1,-5,5h-84a5,5,0,0,1,-5,-5v-12a5,5,0,0,1,5,-5z"></path><g id="node_text10" fill="black"><text id="kity_text_131" text-rendering="inherit" font-size="12" dy=".8em" y="282.69999780505896" x="1232.5000165179372">更精准的RPN</text></g></g><g id="minder_node18"><g id="node_expander10" style="cursor: pointer;" display="none"><path id="kity_path_268" fill="white" stroke="gray" d="M1474.5000200346112,394.4999993816018A6,6,0,1,1,1462.5000200346112,394.4999993816018A6,6,0,1,1,1474.5000200346112,394.4999993816018"></path><path id="kity_path_269" fill="none" stroke="gray"></path></g><path id="node_outline11" fill="none" stroke="none" d="M1479.5000202730298,383.4999993816018h72a5,5,0,0,1,5,5v12a5,5,0,0,1,-5,5h-72a5,5,0,0,1,-5,-5v-12a5,5,0,0,1,5,-5z"></path><g id="node_text11" fill="black"><text id="kity_text_133" text-rendering="inherit" font-size="12" dy=".8em" y="386.6999993547797" x="1484.5000202730298">CoupleNet</text></g></g><g id="minder_node17"><g id="node_expander11" style="cursor: pointer;"><path id="kity_path_271" fill="white" stroke="gray" d="M1377.5000185891986,394.4999993816018A6,6,0,1,1,1365.5000185891986,394.4999993816018A6,6,0,1,1,1377.5000185891986,394.4999993816018"></path><path id="kity_path_272" fill="none" stroke="gray" d="M1367.0000185891986,394.4999993816018L1376.0000185891986,394.4999993816018"></path></g><path id="node_outline12" fill="none" stroke="none" d="M1382.5000188276172,383.4999993816018h47a5,5,0,0,1,5,5v12a5,5,0,0,1,-5,5h-47a5,5,0,0,1,-5,-5v-12a5,5,0,0,1,5,-5z"></path><g id="node_text12" fill="black"><text id="kity_text_135" text-rendering="inherit" font-size="12" dy=".8em" y="386.6999993547797" x="1387.5000188276172">R-FCN</text></g></g><g id="minder_node19"><g id="node_expander12" style="cursor: pointer;" display="none"><path id="kity_path_274" fill="white" stroke="gray" d="M1377.5000185891986,446.5000001564622A6,6,0,1,1,1365.5000185891986,446.5000001564622A6,6,0,1,1,1377.5000185891986,446.5000001564622"></path><path id="kity_path_275" fill="none" stroke="gray"></path></g><path id="node_outline13" fill="none" stroke="none" d="M1382.5000188276172,435.5000001564622h85a5,5,0,0,1,5,5v12a5,5,0,0,1,-5,5h-85a5,5,0,0,1,-5,-5v-12a5,5,0,0,1,5,-5z"></path><g id="node_text13" fill="black"><text id="kity_text_137" text-rendering="inherit" font-size="12" dy=".8em" y="438.7000001296401" x="1387.5000188276172">Mask R-CNN</text></g></g><g id="minder_node20"><g id="node_expander13" style="cursor: pointer;" display="none"><path id="kity_path_277" fill="white" stroke="gray" d="M1377.5000185891986,498.5000009313226A6,6,0,1,1,1365.5000185891986,498.5000009313226A6,6,0,1,1,1377.5000185891986,498.5000009313226"></path><path id="kity_path_278" fill="none" stroke="gray"></path></g><path id="node_outline14" fill="none" stroke="none" d="M1382.5000188276172,487.5000009313226h101a5,5,0,0,1,5,5v12a5,5,0,0,1,-5,5h-101a5,5,0,0,1,-5,-5v-12a5,5,0,0,1,5,-5z"></path><g id="node_text14" fill="black"><text id="kity_text_139" text-rendering="inherit" font-size="12" dy=".8em" y="490.7000009045005" x="1387.5000188276172">Cascade R-CNN</text></g></g><g id="minder_node16"><g id="node_expander14" style="cursor: pointer;"><path id="kity_path_280" fill="white" stroke="gray" d="M1222.5000162795186,446.5000001564622A6,6,0,1,1,1210.5000162795186,446.5000001564622A6,6,0,1,1,1222.5000162795186,446.5000001564622"></path><path id="kity_path_281" fill="none" stroke="gray" d="M1212.0000162795186,446.5000001564622L1221.0000162795186,446.5000001564622"></path></g><path id="node_outline15" fill="none" stroke="none" d="M1227.5000165179372,435.5000001564622h105a5,5,0,0,1,5,5v12a5,5,0,0,1,-5,5h-105a5,5,0,0,1,-5,-5v-12a5,5,0,0,1,5,-5z"></path><g id="node_text15" fill="black"><text id="kity_text_141" text-rendering="inherit" font-size="12" dy=".8em" y="438.7000001296401" x="1232.5000165179372">更完善的ROI分类</text></g></g><g id="minder_node22"><g id="node_expander15" style="cursor: pointer;" display="none"><path id="kity_path_283" fill="white" stroke="gray" d="M1344.5000180974603,550.500001706183A6,6,0,1,1,1332.5000180974603,550.500001706183A6,6,0,1,1,1344.5000180974603,550.500001706183"></path><path id="kity_path_284" fill="none" stroke="gray"></path></g><path id="node_outline16" fill="none" stroke="none" d="M1349.5000183358788,539.500001706183h47a5,5,0,0,1,5,5v12a5,5,0,0,1,-5,5h-47a5,5,0,0,1,-5,-5v-12a5,5,0,0,1,5,-5z"></path><g id="node_text16" fill="black"><text id="kity_text_143" text-rendering="inherit" font-size="12" dy=".8em" y="542.7000016793609" x="1354.5000183358788">OHEM</text></g></g><g id="minder_node23"><g id="node_expander16" style="cursor: pointer;" display="none"><path id="kity_path_286" fill="white" stroke="gray" d="M1344.5000180974603,602.5000024810433A6,6,0,1,1,1332.5000180974603,602.5000024810433A6,6,0,1,1,1344.5000180974603,602.5000024810433"></path><path id="kity_path_287" fill="none" stroke="gray"></path></g><path id="node_outline17" fill="none" stroke="none" d="M1349.5000183358788,591.5000024810433h67a5,5,0,0,1,5,5v12a5,5,0,0,1,-5,5h-67a5,5,0,0,1,-5,-5v-12a5,5,0,0,1,5,-5z"></path><g id="node_text17" fill="black"><text id="kity_text_145" text-rendering="inherit" font-size="12" dy=".8em" y="594.7000024542212" x="1354.5000183358788">Soft-NMS</text></g></g><g id="minder_node24"><g id="node_expander17" style="cursor: pointer;" display="none"><path id="kity_path_289" fill="white" stroke="gray" d="M1344.5000180974603,654.5000032559037A6,6,0,1,1,1332.5000180974603,654.5000032559037A6,6,0,1,1,1344.5000180974603,654.5000032559037"></path><path id="kity_path_290" fill="none" stroke="gray"></path></g><path id="node_outline18" fill="none" stroke="none" d="M1349.5000183358788,643.5000032559037h88a5,5,0,0,1,5,5v12a5,5,0,0,1,-5,5h-88a5,5,0,0,1,-5,-5v-12a5,5,0,0,1,5,-5z"></path><g id="node_text18" fill="black"><text id="kity_text_147" text-rendering="inherit" font-size="12" dy=".8em" y="646.7000032290816" x="1354.5000183358788">A-Fast-RCNN</text></g></g><g id="minder_node21"><g id="node_expander18" style="cursor: pointer;"><path id="kity_path_292" fill="white" stroke="gray" d="M1222.5000162795186,602.5000024810433A6,6,0,1,1,1210.5000162795186,602.5000024810433A6,6,0,1,1,1222.5000162795186,602.5000024810433"></path><path id="kity_path_293" fill="none" stroke="gray" d="M1212.0000162795186,602.5000024810433L1221.0000162795186,602.5000024810433"></path></g><path id="node_outline19" fill="none" stroke="none" d="M1227.5000165179372,591.5000024810433h72a5,5,0,0,1,5,5v12a5,5,0,0,1,-5,5h-72a5,5,0,0,1,-5,-5v-12a5,5,0,0,1,5,-5z"></path><g id="node_text19" fill="black"><text id="kity_text_149" text-rendering="inherit" font-size="12" dy=".8em" y="594.7000024542212" x="1232.5000165179372">样本后处理</text></g></g><g id="minder_node26"><g id="node_expander19" style="cursor: pointer;" display="none"><path id="kity_path_295" fill="white" stroke="gray" d="M1381.5000186488032,706.5000040307641A6,6,0,1,1,1369.5000186488032,706.5000040307641A6,6,0,1,1,1381.5000186488032,706.5000040307641"></path><path id="kity_path_296" fill="none" stroke="gray"></path></g><path id="node_outline20" fill="none" stroke="none" d="M1386.5000188872218,695.5000040307641h57a5,5,0,0,1,5,5v12a5,5,0,0,1,-5,5h-57a5,5,0,0,1,-5,-5v-12a5,5,0,0,1,5,-5z"></path><g id="node_text20" fill="black"><text id="kity_text_151" text-rendering="inherit" font-size="12" dy=".8em" y="698.700004003942" x="1391.5000188872218">MegDet</text></g></g><g id="minder_node25"><g id="node_expander20" style="cursor: pointer;"><path id="kity_path_298" fill="white" stroke="gray" d="M1222.5000162795186,706.5000040307641A6,6,0,1,1,1210.5000162795186,706.5000040307641A6,6,0,1,1,1222.5000162795186,706.5000040307641"></path><path id="kity_path_299" fill="none" stroke="gray" d="M1212.0000162795186,706.5000040307641L1221.0000162795186,706.5000040307641"></path></g><path id="node_outline21" fill="none" stroke="none" d="M1227.5000165179372,695.5000040307641h109a5,5,0,0,1,5,5v12a5,5,0,0,1,-5,5h-109a5,5,0,0,1,-5,-5v-12a5,5,0,0,1,5,-5z"></path><g id="node_text21" fill="black"><text id="kity_text_153" text-rendering="inherit" font-size="12" dy=".8em" y="698.700004003942" x="1232.5000165179372">更大的mini-batch</text></g></g><g id="minder_node6"><g id="node_expander21" style="cursor: pointer;"><path id="kity_path_301" fill="white" stroke="gray" d="M1083.5000142082572,407.4999995753169A6,6,0,1,1,1071.5000142082572,407.4999995753169A6,6,0,1,1,1083.5000142082572,407.4999995753169"></path><path id="kity_path_302" fill="none" stroke="gray" d="M1073.0000142082572,407.4999995753169L1082.0000142082572,407.4999995753169"></path></g><path id="node_outline22" fill="none" stroke="none" d="M1088.5000144466758,396.4999995753169h89a5,5,0,0,1,5,5v12a5,5,0,0,1,-5,5h-89a5,5,0,0,1,-5,-5v-12a5,5,0,0,1,5,-5z"></path><g id="node_text22" fill="black"><text id="kity_text_155" text-rendering="inherit" font-size="12" dy=".8em" y="399.6999995484948" x="1093.5000144466758">Faster R-CNN</text></g></g><g id="minder_node5"><g id="node_expander22" style="cursor: pointer;"><path id="kity_path_304" fill="white" stroke="gray" d="M956.5000123158097,407.4999995753169A6,6,0,1,1,944.5000123158097,407.4999995753169A6,6,0,1,1,956.5000123158097,407.4999995753169"></path><path id="kity_path_305" fill="none" stroke="gray" d="M946.0000123158097,407.4999995753169L955.0000123158097,407.4999995753169"></path></g><path id="node_outline23" fill="none" stroke="none" d="M961.5000125542283,396.4999995753169h77a5,5,0,0,1,5,5v12a5,5,0,0,1,-5,5h-77a5,5,0,0,1,-5,-5v-12a5,5,0,0,1,5,-5z"></path><g id="node_text23" fill="black"><text id="kity_text_157" text-rendering="inherit" font-size="12" dy=".8em" y="399.6999995484948" x="966.5000125542283">Fast R-CNN</text></g></g><g id="minder_node4"><g id="node_expander23" style="cursor: pointer;"><path id="kity_path_307" fill="white" stroke="gray" d="M848.5000107064843,407.4999995753169A6,6,0,1,1,836.5000107064843,407.4999995753169A6,6,0,1,1,848.5000107064843,407.4999995753169"></path><path id="kity_path_308" fill="none" stroke="gray" d="M838.0000107064843,407.4999995753169L847.0000107064843,407.4999995753169"></path></g><path id="node_outline24" fill="none" stroke="none" d="M853.5000109449029,396.4999995753169h58a5,5,0,0,1,5,5v12a5,5,0,0,1,-5,5h-58a5,5,0,0,1,-5,-5v-12a5,5,0,0,1,5,-5z"></path><g id="node_text24" fill="black"><text id="kity_text_159" text-rendering="inherit" font-size="12" dy=".8em" y="399.6999995484948" x="858.5000109449029">SPP-Net</text></g></g><g id="minder_node3"><g id="node_expander24" style="cursor: pointer;"><path id="kity_path_310" fill="white" stroke="gray" d="M747.500009201467,407.4999995753169A6,6,0,1,1,735.500009201467,407.4999995753169A6,6,0,1,1,747.500009201467,407.4999995753169"></path><path id="kity_path_311" fill="none" stroke="gray" d="M737.000009201467,407.4999995753169L746.000009201467,407.4999995753169"></path></g><path id="node_outline25" fill="none" stroke="none" d="M752.5000094398856,396.4999995753169h51a5,5,0,0,1,5,5v12a5,5,0,0,1,-5,5h-51a5,5,0,0,1,-5,-5v-12a5,5,0,0,1,5,-5z"></path><g id="node_text25" fill="black"><text id="kity_text_161" text-rendering="inherit" font-size="12" dy=".8em" y="399.6999995484948" x="757.5000094398856">R-CNN</text></g></g><g id="minder_node38"><g id="node_expander36" style="cursor: pointer;" display="none"><path id="kity_path_346" fill="white" stroke="gray" d="M118.49999982863665,613.5000026449561A6,6,0,1,1,106.49999982863665,613.5000026449561A6,6,0,1,1,118.49999982863665,613.5000026449561"></path><path id="kity_path_347" fill="none" stroke="gray"></path></g><path id="node_outline37" fill="none" stroke="none" d="M24.499998591840267,602.5000026449561h77a5,5,0,0,1,5,5v12a5,5,0,0,1,-5,5h-77a5,5,0,0,1,-5,-5v-12a5,5,0,0,1,5,-5z"></path><g id="node_text37" fill="black"><text id="kity_text_185" text-rendering="inherit" font-size="12" dy=".8em" y="605.700002618134" x="29.499998591840267">Viola-Jones</text></g></g><g id="minder_node39"><g id="node_expander37" style="cursor: pointer;" display="none"><path id="kity_path_349" fill="white" stroke="gray" d="M118.49999982863665,665.5000034198165A6,6,0,1,1,106.49999982863665,665.5000034198165A6,6,0,1,1,118.49999982863665,665.5000034198165"></path><path id="kity_path_350" fill="none" stroke="gray"></path></g><path id="node_outline38" fill="none" stroke="none" d="M27.49999863654375,654.5000034198165h74a5,5,0,0,1,5,5v12a5,5,0,0,1,-5,5h-74a5,5,0,0,1,-5,-5v-12a5,5,0,0,1,5,-5z"></path><g id="node_text38" fill="black"><text id="kity_text_187" text-rendering="inherit" font-size="12" dy=".8em" y="657.7000033929944" x="32.49999863654375">HOG+SVM</text></g></g><g id="minder_node40"><g id="node_expander38" style="cursor: pointer;" display="none"><path id="kity_path_352" fill="white" stroke="gray" d="M118.49999982863665,717.5000041946769A6,6,0,1,1,106.49999982863665,717.5000041946769A6,6,0,1,1,118.49999982863665,717.5000041946769"></path><path id="kity_path_353" fill="none" stroke="gray"></path></g><path id="node_outline39" fill="none" stroke="none" d="M63.499999172985554,706.5000041946769h38a5,5,0,0,1,5,5v12a5,5,0,0,1,-5,5h-38a5,5,0,0,1,-5,-5v-12a5,5,0,0,1,5,-5z"></path><g id="node_text39" fill="black"><text id="kity_text_189" text-rendering="inherit" font-size="12" dy=".8em" y="709.7000041678548" x="68.49999917298555">DPM</text></g></g><g id="minder_node28" opacity="1"><g id="node_expander34" style="cursor: pointer;"><path id="kity_path_340" fill="white" stroke="gray" d="M747.500009201467,924.5000072792172A6,6,0,1,1,735.500009201467,924.5000072792172A6,6,0,1,1,747.500009201467,924.5000072792172"></path><path id="kity_path_341" fill="none" stroke="gray" d="M737.000009201467,924.5000072792172L746.000009201467,924.5000072792172"></path></g><path id="node_outline35" fill="none" stroke="none" d="M752.5000094398856,913.5000072792172h62a5,5,0,0,1,5,5v12a5,5,0,0,1,-5,5h-62a5,5,0,0,1,-5,-5v-12a5,5,0,0,1,5,-5z" stroke-width="3"></path><g id="node_text35" fill="black"><text id="kity_text_181" text-rendering="inherit" font-size="12" dy=".8em" y="916.7000072523952" x="757.5000094398856">OverFeat</text></g></g><g id="kity_g_12" display="none"><path id="kity_path_13" fill="none" stroke="rgb(66, 94, 112)" d="M-137.49999607354403,939.5000034198165h33a5,5,0,0,1,5,5v12a5,5,0,0,1,-5,5h-33a5,5,0,0,1,-5,-5v-12a5,5,0,0,1,5,-5z" stroke-width="5"></path></g><g id="minder_node29" opacity="1"><g id="node_expander26" style="cursor: pointer;" display="none"><path id="kity_path_316" fill="white" stroke="gray" d="M859.5000108703971,768.5000049546361A6,6,0,1,1,847.5000108703971,768.5000049546361A6,6,0,1,1,859.5000108703971,768.5000049546361"></path><path id="kity_path_317" fill="none" stroke="gray"></path></g><path id="node_outline27" fill="none" stroke="none" d="M864.5000111088157,757.5000049546361h37a5,5,0,0,1,5,5v12a5,5,0,0,1,-5,5h-37a5,5,0,0,1,-5,-5v-12a5,5,0,0,1,5,-5z" stroke-width="3"></path><g id="node_text27" fill="black"><text id="kity_text_165" text-rendering="inherit" font-size="12" dy=".8em" y="760.700004927814" x="869.5000111088157">Yolo</text></g></g><g id="minder_node30" opacity="1"><g id="node_expander27" style="cursor: pointer;" display="none"><path id="kity_path_319" fill="white" stroke="gray" d="M859.5000108703971,820.5000057294965A6,6,0,1,1,847.5000108703971,820.5000057294965A6,6,0,1,1,859.5000108703971,820.5000057294965"></path><path id="kity_path_320" fill="none" stroke="gray"></path></g><path id="node_outline28" fill="none" stroke="none" d="M864.5000111088157,809.5000057294965h52a5,5,0,0,1,5,5v12a5,5,0,0,1,-5,5h-52a5,5,0,0,1,-5,-5v-12a5,5,0,0,1,5,-5z" stroke-width="3"></path><g id="node_text28" fill="black"><text id="kity_text_167" text-rendering="inherit" font-size="12" dy=".8em" y="812.7000057026744" x="869.5000111088157">G-CNN</text></g></g><g id="minder_node32" opacity="1"><g id="node_expander28" style="cursor: pointer;" display="none"><path id="kity_path_322" fill="white" stroke="gray" d="M942.5000121071935,872.5000065043569A6,6,0,1,1,930.5000121071935,872.5000065043569A6,6,0,1,1,942.5000121071935,872.5000065043569"></path><path id="kity_path_323" fill="none" stroke="gray"></path></g><path id="node_outline29" fill="none" stroke="none" d="M947.500012345612,861.5000065043569h46a5,5,0,0,1,5,5v12a5,5,0,0,1,-5,5h-46a5,5,0,0,1,-5,-5v-12a5,5,0,0,1,5,-5z" stroke-width="3"></path><g id="node_text29" fill="black"><text id="kity_text_169" text-rendering="inherit" font-size="12" dy=".8em" y="864.7000064775348" x="952.500012345612">R_SSD</text></g></g><g id="minder_node33" opacity="1"><g id="node_expander29" style="cursor: pointer;" display="none"><path id="kity_path_325" fill="white" stroke="gray" d="M942.5000121071935,924.5000072792172A6,6,0,1,1,930.5000121071935,924.5000072792172A6,6,0,1,1,942.5000121071935,924.5000072792172"></path><path id="kity_path_326" fill="none" stroke="gray"></path></g><path id="node_outline30" fill="none" stroke="none" d="M947.500012345612,913.5000072792172h42a5,5,0,0,1,5,5v12a5,5,0,0,1,-5,5h-42a5,5,0,0,1,-5,-5v-12a5,5,0,0,1,5,-5z" stroke-width="3"></path><g id="node_text30" fill="black"><text id="kity_text_171" text-rendering="inherit" font-size="12" dy=".8em" y="916.7000072523952" x="952.500012345612">DSSD</text></g></g><g id="minder_node34" opacity="1"><g id="node_expander30" style="cursor: pointer;" display="none"><path id="kity_path_328" fill="white" stroke="gray" d="M942.5000121071935,976.5000080540776A6,6,0,1,1,930.5000121071935,976.5000080540776A6,6,0,1,1,942.5000121071935,976.5000080540776"></path><path id="kity_path_329" fill="none" stroke="gray"></path></g><path id="node_outline31" fill="none" stroke="none" d="M947.500012345612,965.5000080540776h45a5,5,0,0,1,5,5v12a5,5,0,0,1,-5,5h-45a5,5,0,0,1,-5,-5v-12a5,5,0,0,1,5,-5z" stroke-width="3"></path><g id="node_text31" fill="black"><text id="kity_text_173" text-rendering="inherit" font-size="12" dy=".8em" y="968.7000080272555" x="952.500012345612">DSOD</text></g></g><g id="minder_node35" opacity="1"><g id="node_expander31" style="cursor: pointer;" display="none"><path id="kity_path_331" fill="white" stroke="gray" d="M942.5000121071935,1028.500008828938A6,6,0,1,1,930.5000121071935,1028.500008828938A6,6,0,1,1,942.5000121071935,1028.500008828938"></path><path id="kity_path_332" fill="none" stroke="gray"></path></g><path id="node_outline32" fill="none" stroke="none" d="M947.500012345612,1017.500008828938h39a5,5,0,0,1,5,5v12a5,5,0,0,1,-5,5h-39a5,5,0,0,1,-5,-5v-12a5,5,0,0,1,5,-5z" stroke-width="3"></path><g id="node_text32" fill="black"><text id="kity_text_175" text-rendering="inherit" font-size="12" dy=".8em" y="1020.7000088021159" x="952.500012345612">FSSD</text></g></g><g id="minder_node31" opacity="1"><g id="node_expander32" style="cursor: pointer;"><path id="kity_path_334" fill="white" stroke="gray" d="M859.5000108703971,950.5000076666474A6,6,0,1,1,847.5000108703971,950.5000076666474A6,6,0,1,1,859.5000108703971,950.5000076666474"></path><path id="kity_path_335" fill="none" stroke="gray" d="M849.0000108703971,950.5000076666474L858.0000108703971,950.5000076666474"></path></g><path id="node_outline33" fill="none" stroke="none" d="M864.5000111088157,939.5000076666474h33a5,5,0,0,1,5,5v12a5,5,0,0,1,-5,5h-33a5,5,0,0,1,-5,-5v-12a5,5,0,0,1,5,-5z" stroke-width="3"></path><g id="node_text33" fill="black"><text id="kity_text_177" text-rendering="inherit" font-size="12" dy=".8em" y="942.7000076398253" x="869.5000111088157">SSD</text></g></g><g id="minder_node36" opacity="1"><g id="node_expander33" style="cursor: pointer;" display="none"><path id="kity_path_337" fill="white" stroke="gray" d="M859.5000108703971,1080.5000096037984A6,6,0,1,1,847.5000108703971,1080.5000096037984A6,6,0,1,1,859.5000108703971,1080.5000096037984"></path><path id="kity_path_338" fill="none" stroke="gray"></path></g><path id="node_outline34" fill="none" stroke="none" d="M864.5000111088157,1069.5000096037984h37a5,5,0,0,1,5,5v12a5,5,0,0,1,-5,5h-37a5,5,0,0,1,-5,-5v-12a5,5,0,0,1,5,-5z" stroke-width="3"></path><g id="node_text34" fill="black"><text id="kity_text_179" text-rendering="inherit" font-size="12" dy=".8em" y="1072.7000095769763" x="869.5000111088157">RON</text></g></g></g></g></svg>